G04 #@! TF.GenerationSoftware,KiCad,Pcbnew,(6.0.0)*
G04 #@! TF.CreationDate,2022-02-11T16:11:40+09:00*
G04 #@! TF.ProjectId,SkeletonNumPad,536b656c-6574-46f6-9e4e-756d5061642e,rev?*
G04 #@! TF.SameCoordinates,Original*
G04 #@! TF.FileFunction,Legend,Bot*
G04 #@! TF.FilePolarity,Positive*
%FSLAX46Y46*%
G04 Gerber Fmt 4.6, Leading zero omitted, Abs format (unit mm)*
G04 Created by KiCad (PCBNEW (6.0.0)) date 2022-02-11 16:11:40*
%MOMM*%
%LPD*%
G01*
G04 APERTURE LIST*
G04 Aperture macros list*
%AMRoundRect*
0 Rectangle with rounded corners*
0 $1 Rounding radius*
0 $2 $3 $4 $5 $6 $7 $8 $9 X,Y pos of 4 corners*
0 Add a 4 corners polygon primitive as box body*
4,1,4,$2,$3,$4,$5,$6,$7,$8,$9,$2,$3,0*
0 Add four circle primitives for the rounded corners*
1,1,$1+$1,$2,$3*
1,1,$1+$1,$4,$5*
1,1,$1+$1,$6,$7*
1,1,$1+$1,$8,$9*
0 Add four rect primitives between the rounded corners*
20,1,$1+$1,$2,$3,$4,$5,0*
20,1,$1+$1,$4,$5,$6,$7,0*
20,1,$1+$1,$6,$7,$8,$9,0*
20,1,$1+$1,$8,$9,$2,$3,0*%
%AMRotRect*
0 Rectangle, with rotation*
0 The origin of the aperture is its center*
0 $1 length*
0 $2 width*
0 $3 Rotation angle, in degrees counterclockwise*
0 Add horizontal line*
21,1,$1,$2,0,0,$3*%
G04 Aperture macros list end*
%ADD10C,0.150000*%
%ADD11C,0.120000*%
%ADD12C,0.600000*%
%ADD13R,0.600000X1.160000*%
%ADD14R,0.300000X1.160000*%
%ADD15O,0.900000X1.700000*%
%ADD16O,0.900000X2.000000*%
%ADD17R,1.200000X0.900000*%
%ADD18RoundRect,0.250000X-0.625000X0.375000X-0.625000X-0.375000X0.625000X-0.375000X0.625000X0.375000X0*%
%ADD19C,1.750000*%
%ADD20C,3.000000*%
%ADD21C,3.987800*%
%ADD22R,2.550000X2.500000*%
%ADD23R,0.500000X0.700000*%
%ADD24RoundRect,0.250000X0.475000X-0.250000X0.475000X0.250000X-0.475000X0.250000X-0.475000X-0.250000X0*%
%ADD25RoundRect,0.250000X-0.262500X-0.450000X0.262500X-0.450000X0.262500X0.450000X-0.262500X0.450000X0*%
%ADD26RoundRect,0.250000X-0.475000X0.250000X-0.475000X-0.250000X0.475000X-0.250000X0.475000X0.250000X0*%
%ADD27C,3.048000*%
%ADD28R,1.800000X1.100000*%
%ADD29RoundRect,0.250000X-0.450000X0.262500X-0.450000X-0.262500X0.450000X-0.262500X0.450000X0.262500X0*%
%ADD30R,1.400000X1.200000*%
%ADD31R,1.400000X1.000000*%
%ADD32RoundRect,0.062500X-0.291682X-0.380070X0.380070X0.291682X0.291682X0.380070X-0.380070X-0.291682X0*%
%ADD33RoundRect,0.062500X0.291682X-0.380070X0.380070X-0.291682X-0.291682X0.380070X-0.380070X0.291682X0*%
%ADD34RotRect,5.200000X5.200000X45.000000*%
%ADD35RoundRect,0.250000X0.450000X-0.262500X0.450000X0.262500X-0.450000X0.262500X-0.450000X-0.262500X0*%
G04 APERTURE END LIST*
D10*
X133683333Y-38847380D02*
X133683333Y-39561666D01*
X133730952Y-39704523D01*
X133826190Y-39799761D01*
X133969047Y-39847380D01*
X134064285Y-39847380D01*
X132683333Y-39847380D02*
X133254761Y-39847380D01*
X132969047Y-39847380D02*
X132969047Y-38847380D01*
X133064285Y-38990238D01*
X133159523Y-39085476D01*
X133254761Y-39133095D01*
X151672380Y-71721904D02*
X150672380Y-71721904D01*
X150672380Y-71960000D01*
X150720000Y-72102857D01*
X150815238Y-72198095D01*
X150910476Y-72245714D01*
X151100952Y-72293333D01*
X151243809Y-72293333D01*
X151434285Y-72245714D01*
X151529523Y-72198095D01*
X151624761Y-72102857D01*
X151672380Y-71960000D01*
X151672380Y-71721904D01*
X150672380Y-72626666D02*
X150672380Y-73293333D01*
X151672380Y-72864761D01*
X112458571Y-39436666D02*
X112458571Y-39103333D01*
X112982380Y-39103333D02*
X111982380Y-39103333D01*
X111982380Y-39579523D01*
X112982380Y-40484285D02*
X112982380Y-39912857D01*
X112982380Y-40198571D02*
X111982380Y-40198571D01*
X112125238Y-40103333D01*
X112220476Y-40008095D01*
X112268095Y-39912857D01*
X132622380Y-90295714D02*
X131622380Y-90295714D01*
X131622380Y-90533809D01*
X131670000Y-90676666D01*
X131765238Y-90771904D01*
X131860476Y-90819523D01*
X132050952Y-90867142D01*
X132193809Y-90867142D01*
X132384285Y-90819523D01*
X132479523Y-90771904D01*
X132574761Y-90676666D01*
X132622380Y-90533809D01*
X132622380Y-90295714D01*
X132622380Y-91819523D02*
X132622380Y-91248095D01*
X132622380Y-91533809D02*
X131622380Y-91533809D01*
X131765238Y-91438571D01*
X131860476Y-91343333D01*
X131908095Y-91248095D01*
X131622380Y-92438571D02*
X131622380Y-92533809D01*
X131670000Y-92629047D01*
X131717619Y-92676666D01*
X131812857Y-92724285D01*
X132003333Y-92771904D01*
X132241428Y-92771904D01*
X132431904Y-92724285D01*
X132527142Y-92676666D01*
X132574761Y-92629047D01*
X132622380Y-92533809D01*
X132622380Y-92438571D01*
X132574761Y-92343333D01*
X132527142Y-92295714D01*
X132431904Y-92248095D01*
X132241428Y-92200476D01*
X132003333Y-92200476D01*
X131812857Y-92248095D01*
X131717619Y-92295714D01*
X131670000Y-92343333D01*
X131622380Y-92438571D01*
X151672380Y-52671904D02*
X150672380Y-52671904D01*
X150672380Y-52910000D01*
X150720000Y-53052857D01*
X150815238Y-53148095D01*
X150910476Y-53195714D01*
X151100952Y-53243333D01*
X151243809Y-53243333D01*
X151434285Y-53195714D01*
X151529523Y-53148095D01*
X151624761Y-53052857D01*
X151672380Y-52910000D01*
X151672380Y-52671904D01*
X150672380Y-53576666D02*
X150672380Y-54195714D01*
X151053333Y-53862380D01*
X151053333Y-54005238D01*
X151100952Y-54100476D01*
X151148571Y-54148095D01*
X151243809Y-54195714D01*
X151481904Y-54195714D01*
X151577142Y-54148095D01*
X151624761Y-54100476D01*
X151672380Y-54005238D01*
X151672380Y-53719523D01*
X151624761Y-53624285D01*
X151577142Y-53576666D01*
X105904047Y-74452380D02*
X106380238Y-74452380D01*
X106380238Y-73452380D01*
X105570714Y-73928571D02*
X105237380Y-73928571D01*
X105094523Y-74452380D02*
X105570714Y-74452380D01*
X105570714Y-73452380D01*
X105094523Y-73452380D01*
X104665952Y-74452380D02*
X104665952Y-73452380D01*
X104427857Y-73452380D01*
X104285000Y-73500000D01*
X104189761Y-73595238D01*
X104142142Y-73690476D01*
X104094523Y-73880952D01*
X104094523Y-74023809D01*
X104142142Y-74214285D01*
X104189761Y-74309523D01*
X104285000Y-74404761D01*
X104427857Y-74452380D01*
X104665952Y-74452380D01*
X103189761Y-73452380D02*
X103665952Y-73452380D01*
X103713571Y-73928571D01*
X103665952Y-73880952D01*
X103570714Y-73833333D01*
X103332619Y-73833333D01*
X103237380Y-73880952D01*
X103189761Y-73928571D01*
X103142142Y-74023809D01*
X103142142Y-74261904D01*
X103189761Y-74357142D01*
X103237380Y-74404761D01*
X103332619Y-74452380D01*
X103570714Y-74452380D01*
X103665952Y-74404761D01*
X103713571Y-74357142D01*
X123097380Y-128395714D02*
X122097380Y-128395714D01*
X122097380Y-128633809D01*
X122145000Y-128776666D01*
X122240238Y-128871904D01*
X122335476Y-128919523D01*
X122525952Y-128967142D01*
X122668809Y-128967142D01*
X122859285Y-128919523D01*
X122954523Y-128871904D01*
X123049761Y-128776666D01*
X123097380Y-128633809D01*
X123097380Y-128395714D01*
X123097380Y-129919523D02*
X123097380Y-129348095D01*
X123097380Y-129633809D02*
X122097380Y-129633809D01*
X122240238Y-129538571D01*
X122335476Y-129443333D01*
X122383095Y-129348095D01*
X122097380Y-130776666D02*
X122097380Y-130586190D01*
X122145000Y-130490952D01*
X122192619Y-130443333D01*
X122335476Y-130348095D01*
X122525952Y-130300476D01*
X122906904Y-130300476D01*
X123002142Y-130348095D01*
X123049761Y-130395714D01*
X123097380Y-130490952D01*
X123097380Y-130681428D01*
X123049761Y-130776666D01*
X123002142Y-130824285D01*
X122906904Y-130871904D01*
X122668809Y-130871904D01*
X122573571Y-130824285D01*
X122525952Y-130776666D01*
X122478333Y-130681428D01*
X122478333Y-130490952D01*
X122525952Y-130395714D01*
X122573571Y-130348095D01*
X122668809Y-130300476D01*
X165094642Y-57683333D02*
X165142261Y-57635714D01*
X165189880Y-57492857D01*
X165189880Y-57397619D01*
X165142261Y-57254761D01*
X165047023Y-57159523D01*
X164951785Y-57111904D01*
X164761309Y-57064285D01*
X164618452Y-57064285D01*
X164427976Y-57111904D01*
X164332738Y-57159523D01*
X164237500Y-57254761D01*
X164189880Y-57397619D01*
X164189880Y-57492857D01*
X164237500Y-57635714D01*
X164285119Y-57683333D01*
X164189880Y-58588095D02*
X164189880Y-58111904D01*
X164666071Y-58064285D01*
X164618452Y-58111904D01*
X164570833Y-58207142D01*
X164570833Y-58445238D01*
X164618452Y-58540476D01*
X164666071Y-58588095D01*
X164761309Y-58635714D01*
X164999404Y-58635714D01*
X165094642Y-58588095D01*
X165142261Y-58540476D01*
X165189880Y-58445238D01*
X165189880Y-58207142D01*
X165142261Y-58111904D01*
X165094642Y-58064285D01*
X157329166Y-40202380D02*
X157662500Y-39726190D01*
X157900595Y-40202380D02*
X157900595Y-39202380D01*
X157519642Y-39202380D01*
X157424404Y-39250000D01*
X157376785Y-39297619D01*
X157329166Y-39392857D01*
X157329166Y-39535714D01*
X157376785Y-39630952D01*
X157424404Y-39678571D01*
X157519642Y-39726190D01*
X157900595Y-39726190D01*
X156948214Y-39297619D02*
X156900595Y-39250000D01*
X156805357Y-39202380D01*
X156567261Y-39202380D01*
X156472023Y-39250000D01*
X156424404Y-39297619D01*
X156376785Y-39392857D01*
X156376785Y-39488095D01*
X156424404Y-39630952D01*
X156995833Y-40202380D01*
X156376785Y-40202380D01*
X159024642Y-130923333D02*
X159072261Y-130875714D01*
X159119880Y-130732857D01*
X159119880Y-130637619D01*
X159072261Y-130494761D01*
X158977023Y-130399523D01*
X158881785Y-130351904D01*
X158691309Y-130304285D01*
X158548452Y-130304285D01*
X158357976Y-130351904D01*
X158262738Y-130399523D01*
X158167500Y-130494761D01*
X158119880Y-130637619D01*
X158119880Y-130732857D01*
X158167500Y-130875714D01*
X158215119Y-130923333D01*
X159119880Y-131875714D02*
X159119880Y-131304285D01*
X159119880Y-131590000D02*
X158119880Y-131590000D01*
X158262738Y-131494761D01*
X158357976Y-131399523D01*
X158405595Y-131304285D01*
X113572380Y-90771904D02*
X112572380Y-90771904D01*
X112572380Y-91010000D01*
X112620000Y-91152857D01*
X112715238Y-91248095D01*
X112810476Y-91295714D01*
X113000952Y-91343333D01*
X113143809Y-91343333D01*
X113334285Y-91295714D01*
X113429523Y-91248095D01*
X113524761Y-91152857D01*
X113572380Y-91010000D01*
X113572380Y-90771904D01*
X113572380Y-91819523D02*
X113572380Y-92010000D01*
X113524761Y-92105238D01*
X113477142Y-92152857D01*
X113334285Y-92248095D01*
X113143809Y-92295714D01*
X112762857Y-92295714D01*
X112667619Y-92248095D01*
X112620000Y-92200476D01*
X112572380Y-92105238D01*
X112572380Y-91914761D01*
X112620000Y-91819523D01*
X112667619Y-91771904D01*
X112762857Y-91724285D01*
X113000952Y-91724285D01*
X113096190Y-91771904D01*
X113143809Y-91819523D01*
X113191428Y-91914761D01*
X113191428Y-92105238D01*
X113143809Y-92200476D01*
X113096190Y-92248095D01*
X113000952Y-92295714D01*
X115742838Y-131452380D02*
X116219028Y-131452380D01*
X116219028Y-130452380D01*
X115409504Y-130928571D02*
X115076171Y-130928571D01*
X114933314Y-131452380D02*
X115409504Y-131452380D01*
X115409504Y-130452380D01*
X114933314Y-130452380D01*
X114504742Y-131452380D02*
X114504742Y-130452380D01*
X114266647Y-130452380D01*
X114123790Y-130500000D01*
X114028552Y-130595238D01*
X113980933Y-130690476D01*
X113933314Y-130880952D01*
X113933314Y-131023809D01*
X113980933Y-131214285D01*
X114028552Y-131309523D01*
X114123790Y-131404761D01*
X114266647Y-131452380D01*
X114504742Y-131452380D01*
X112980933Y-131452380D02*
X113552361Y-131452380D01*
X113266647Y-131452380D02*
X113266647Y-130452380D01*
X113361885Y-130595238D01*
X113457123Y-130690476D01*
X113552361Y-130738095D01*
X112647600Y-130452380D02*
X111980933Y-130452380D01*
X112409504Y-131452380D01*
X132622380Y-52671904D02*
X131622380Y-52671904D01*
X131622380Y-52910000D01*
X131670000Y-53052857D01*
X131765238Y-53148095D01*
X131860476Y-53195714D01*
X132050952Y-53243333D01*
X132193809Y-53243333D01*
X132384285Y-53195714D01*
X132479523Y-53148095D01*
X132574761Y-53052857D01*
X132622380Y-52910000D01*
X132622380Y-52671904D01*
X131717619Y-53624285D02*
X131670000Y-53671904D01*
X131622380Y-53767142D01*
X131622380Y-54005238D01*
X131670000Y-54100476D01*
X131717619Y-54148095D01*
X131812857Y-54195714D01*
X131908095Y-54195714D01*
X132050952Y-54148095D01*
X132622380Y-53576666D01*
X132622380Y-54195714D01*
X144317838Y-131452380D02*
X144794028Y-131452380D01*
X144794028Y-130452380D01*
X143984504Y-130928571D02*
X143651171Y-130928571D01*
X143508314Y-131452380D02*
X143984504Y-131452380D01*
X143984504Y-130452380D01*
X143508314Y-130452380D01*
X143079742Y-131452380D02*
X143079742Y-130452380D01*
X142841647Y-130452380D01*
X142698790Y-130500000D01*
X142603552Y-130595238D01*
X142555933Y-130690476D01*
X142508314Y-130880952D01*
X142508314Y-131023809D01*
X142555933Y-131214285D01*
X142603552Y-131309523D01*
X142698790Y-131404761D01*
X142841647Y-131452380D01*
X143079742Y-131452380D01*
X141555933Y-131452380D02*
X142127361Y-131452380D01*
X141841647Y-131452380D02*
X141841647Y-130452380D01*
X141936885Y-130595238D01*
X142032123Y-130690476D01*
X142127361Y-130738095D01*
X140698790Y-130452380D02*
X140889266Y-130452380D01*
X140984504Y-130500000D01*
X141032123Y-130547619D01*
X141127361Y-130690476D01*
X141174980Y-130880952D01*
X141174980Y-131261904D01*
X141127361Y-131357142D01*
X141079742Y-131404761D01*
X140984504Y-131452380D01*
X140794028Y-131452380D01*
X140698790Y-131404761D01*
X140651171Y-131357142D01*
X140603552Y-131261904D01*
X140603552Y-131023809D01*
X140651171Y-130928571D01*
X140698790Y-130880952D01*
X140794028Y-130833333D01*
X140984504Y-130833333D01*
X141079742Y-130880952D01*
X141127361Y-130928571D01*
X141174980Y-131023809D01*
X164949166Y-105924880D02*
X165282500Y-105448690D01*
X165520595Y-105924880D02*
X165520595Y-104924880D01*
X165139642Y-104924880D01*
X165044404Y-104972500D01*
X164996785Y-105020119D01*
X164949166Y-105115357D01*
X164949166Y-105258214D01*
X164996785Y-105353452D01*
X165044404Y-105401071D01*
X165139642Y-105448690D01*
X165520595Y-105448690D01*
X164044404Y-104924880D02*
X164520595Y-104924880D01*
X164568214Y-105401071D01*
X164520595Y-105353452D01*
X164425357Y-105305833D01*
X164187261Y-105305833D01*
X164092023Y-105353452D01*
X164044404Y-105401071D01*
X163996785Y-105496309D01*
X163996785Y-105734404D01*
X164044404Y-105829642D01*
X164092023Y-105877261D01*
X164187261Y-105924880D01*
X164425357Y-105924880D01*
X164520595Y-105877261D01*
X164568214Y-105829642D01*
X132622380Y-71721904D02*
X131622380Y-71721904D01*
X131622380Y-71960000D01*
X131670000Y-72102857D01*
X131765238Y-72198095D01*
X131860476Y-72245714D01*
X132050952Y-72293333D01*
X132193809Y-72293333D01*
X132384285Y-72245714D01*
X132479523Y-72198095D01*
X132574761Y-72102857D01*
X132622380Y-71960000D01*
X132622380Y-71721904D01*
X131622380Y-73150476D02*
X131622380Y-72960000D01*
X131670000Y-72864761D01*
X131717619Y-72817142D01*
X131860476Y-72721904D01*
X132050952Y-72674285D01*
X132431904Y-72674285D01*
X132527142Y-72721904D01*
X132574761Y-72769523D01*
X132622380Y-72864761D01*
X132622380Y-73055238D01*
X132574761Y-73150476D01*
X132527142Y-73198095D01*
X132431904Y-73245714D01*
X132193809Y-73245714D01*
X132098571Y-73198095D01*
X132050952Y-73150476D01*
X132003333Y-73055238D01*
X132003333Y-72864761D01*
X132050952Y-72769523D01*
X132098571Y-72721904D01*
X132193809Y-72674285D01*
X152566666Y-40202380D02*
X152900000Y-39726190D01*
X153138095Y-40202380D02*
X153138095Y-39202380D01*
X152757142Y-39202380D01*
X152661904Y-39250000D01*
X152614285Y-39297619D01*
X152566666Y-39392857D01*
X152566666Y-39535714D01*
X152614285Y-39630952D01*
X152661904Y-39678571D01*
X152757142Y-39726190D01*
X153138095Y-39726190D01*
X151614285Y-40202380D02*
X152185714Y-40202380D01*
X151900000Y-40202380D02*
X151900000Y-39202380D01*
X151995238Y-39345238D01*
X152090476Y-39440476D01*
X152185714Y-39488095D01*
X143841647Y-93452380D02*
X144317838Y-93452380D01*
X144317838Y-92452380D01*
X143508314Y-92928571D02*
X143174980Y-92928571D01*
X143032123Y-93452380D02*
X143508314Y-93452380D01*
X143508314Y-92452380D01*
X143032123Y-92452380D01*
X142603552Y-93452380D02*
X142603552Y-92452380D01*
X142365457Y-92452380D01*
X142222600Y-92500000D01*
X142127361Y-92595238D01*
X142079742Y-92690476D01*
X142032123Y-92880952D01*
X142032123Y-93023809D01*
X142079742Y-93214285D01*
X142127361Y-93309523D01*
X142222600Y-93404761D01*
X142365457Y-93452380D01*
X142603552Y-93452380D01*
X141555933Y-93452380D02*
X141365457Y-93452380D01*
X141270219Y-93404761D01*
X141222600Y-93357142D01*
X141127361Y-93214285D01*
X141079742Y-93023809D01*
X141079742Y-92642857D01*
X141127361Y-92547619D01*
X141174980Y-92500000D01*
X141270219Y-92452380D01*
X141460695Y-92452380D01*
X141555933Y-92500000D01*
X141603552Y-92547619D01*
X141651171Y-92642857D01*
X141651171Y-92880952D01*
X141603552Y-92976190D01*
X141555933Y-93023809D01*
X141460695Y-93071428D01*
X141270219Y-93071428D01*
X141174980Y-93023809D01*
X141127361Y-92976190D01*
X141079742Y-92880952D01*
X113572380Y-52671904D02*
X112572380Y-52671904D01*
X112572380Y-52910000D01*
X112620000Y-53052857D01*
X112715238Y-53148095D01*
X112810476Y-53195714D01*
X113000952Y-53243333D01*
X113143809Y-53243333D01*
X113334285Y-53195714D01*
X113429523Y-53148095D01*
X113524761Y-53052857D01*
X113572380Y-52910000D01*
X113572380Y-52671904D01*
X113572380Y-54195714D02*
X113572380Y-53624285D01*
X113572380Y-53910000D02*
X112572380Y-53910000D01*
X112715238Y-53814761D01*
X112810476Y-53719523D01*
X112858095Y-53624285D01*
X105741647Y-55452380D02*
X106217838Y-55452380D01*
X106217838Y-54452380D01*
X105408314Y-54928571D02*
X105074980Y-54928571D01*
X104932123Y-55452380D02*
X105408314Y-55452380D01*
X105408314Y-54452380D01*
X104932123Y-54452380D01*
X104503552Y-55452380D02*
X104503552Y-54452380D01*
X104265457Y-54452380D01*
X104122600Y-54500000D01*
X104027361Y-54595238D01*
X103979742Y-54690476D01*
X103932123Y-54880952D01*
X103932123Y-55023809D01*
X103979742Y-55214285D01*
X104027361Y-55309523D01*
X104122600Y-55404761D01*
X104265457Y-55452380D01*
X104503552Y-55452380D01*
X103074980Y-54785714D02*
X103074980Y-55452380D01*
X103313076Y-54404761D02*
X103551171Y-55119047D01*
X102932123Y-55119047D01*
X130301785Y-121582261D02*
X130158928Y-121629880D01*
X129920833Y-121629880D01*
X129825595Y-121582261D01*
X129777976Y-121534642D01*
X129730357Y-121439404D01*
X129730357Y-121344166D01*
X129777976Y-121248928D01*
X129825595Y-121201309D01*
X129920833Y-121153690D01*
X130111309Y-121106071D01*
X130206547Y-121058452D01*
X130254166Y-121010833D01*
X130301785Y-120915595D01*
X130301785Y-120820357D01*
X130254166Y-120725119D01*
X130206547Y-120677500D01*
X130111309Y-120629880D01*
X129873214Y-120629880D01*
X129730357Y-120677500D01*
X129397023Y-120629880D02*
X129158928Y-121629880D01*
X128968452Y-120915595D01*
X128777976Y-121629880D01*
X128539880Y-120629880D01*
X128397023Y-121725119D02*
X127635119Y-121725119D01*
X126873214Y-121629880D02*
X127444642Y-121629880D01*
X127158928Y-121629880D02*
X127158928Y-120629880D01*
X127254166Y-120772738D01*
X127349404Y-120867976D01*
X127444642Y-120915595D01*
X159379642Y-57683333D02*
X159427261Y-57635714D01*
X159474880Y-57492857D01*
X159474880Y-57397619D01*
X159427261Y-57254761D01*
X159332023Y-57159523D01*
X159236785Y-57111904D01*
X159046309Y-57064285D01*
X158903452Y-57064285D01*
X158712976Y-57111904D01*
X158617738Y-57159523D01*
X158522500Y-57254761D01*
X158474880Y-57397619D01*
X158474880Y-57492857D01*
X158522500Y-57635714D01*
X158570119Y-57683333D01*
X158474880Y-58016666D02*
X158474880Y-58683333D01*
X159474880Y-58254761D01*
X143841647Y-55452380D02*
X144317838Y-55452380D01*
X144317838Y-54452380D01*
X143508314Y-54928571D02*
X143174980Y-54928571D01*
X143032123Y-55452380D02*
X143508314Y-55452380D01*
X143508314Y-54452380D01*
X143032123Y-54452380D01*
X142603552Y-55452380D02*
X142603552Y-54452380D01*
X142365457Y-54452380D01*
X142222600Y-54500000D01*
X142127361Y-54595238D01*
X142079742Y-54690476D01*
X142032123Y-54880952D01*
X142032123Y-55023809D01*
X142079742Y-55214285D01*
X142127361Y-55309523D01*
X142222600Y-55404761D01*
X142365457Y-55452380D01*
X142603552Y-55452380D01*
X141651171Y-54547619D02*
X141603552Y-54500000D01*
X141508314Y-54452380D01*
X141270219Y-54452380D01*
X141174980Y-54500000D01*
X141127361Y-54547619D01*
X141079742Y-54642857D01*
X141079742Y-54738095D01*
X141127361Y-54880952D01*
X141698790Y-55452380D01*
X141079742Y-55452380D01*
X163192380Y-63163333D02*
X162716190Y-62830000D01*
X163192380Y-62591904D02*
X162192380Y-62591904D01*
X162192380Y-62972857D01*
X162240000Y-63068095D01*
X162287619Y-63115714D01*
X162382857Y-63163333D01*
X162525714Y-63163333D01*
X162620952Y-63115714D01*
X162668571Y-63068095D01*
X162716190Y-62972857D01*
X162716190Y-62591904D01*
X162525714Y-64020476D02*
X163192380Y-64020476D01*
X162144761Y-63782380D02*
X162859047Y-63544285D01*
X162859047Y-64163333D01*
X162891647Y-55452380D02*
X163367838Y-55452380D01*
X163367838Y-54452380D01*
X162558314Y-54928571D02*
X162224980Y-54928571D01*
X162082123Y-55452380D02*
X162558314Y-55452380D01*
X162558314Y-54452380D01*
X162082123Y-54452380D01*
X161653552Y-55452380D02*
X161653552Y-54452380D01*
X161415457Y-54452380D01*
X161272600Y-54500000D01*
X161177361Y-54595238D01*
X161129742Y-54690476D01*
X161082123Y-54880952D01*
X161082123Y-55023809D01*
X161129742Y-55214285D01*
X161177361Y-55309523D01*
X161272600Y-55404761D01*
X161415457Y-55452380D01*
X161653552Y-55452380D01*
X160129742Y-55452380D02*
X160701171Y-55452380D01*
X160415457Y-55452380D02*
X160415457Y-54452380D01*
X160510695Y-54595238D01*
X160605933Y-54690476D01*
X160701171Y-54738095D01*
X170722380Y-81246904D02*
X169722380Y-81246904D01*
X169722380Y-81485000D01*
X169770000Y-81627857D01*
X169865238Y-81723095D01*
X169960476Y-81770714D01*
X170150952Y-81818333D01*
X170293809Y-81818333D01*
X170484285Y-81770714D01*
X170579523Y-81723095D01*
X170674761Y-81627857D01*
X170722380Y-81485000D01*
X170722380Y-81246904D01*
X170150952Y-82389761D02*
X170103333Y-82294523D01*
X170055714Y-82246904D01*
X169960476Y-82199285D01*
X169912857Y-82199285D01*
X169817619Y-82246904D01*
X169770000Y-82294523D01*
X169722380Y-82389761D01*
X169722380Y-82580238D01*
X169770000Y-82675476D01*
X169817619Y-82723095D01*
X169912857Y-82770714D01*
X169960476Y-82770714D01*
X170055714Y-82723095D01*
X170103333Y-82675476D01*
X170150952Y-82580238D01*
X170150952Y-82389761D01*
X170198571Y-82294523D01*
X170246190Y-82246904D01*
X170341428Y-82199285D01*
X170531904Y-82199285D01*
X170627142Y-82246904D01*
X170674761Y-82294523D01*
X170722380Y-82389761D01*
X170722380Y-82580238D01*
X170674761Y-82675476D01*
X170627142Y-82723095D01*
X170531904Y-82770714D01*
X170341428Y-82770714D01*
X170246190Y-82723095D01*
X170198571Y-82675476D01*
X170150952Y-82580238D01*
X163530238Y-121952380D02*
X164006428Y-121952380D01*
X164006428Y-120952380D01*
X163196904Y-121428571D02*
X162863571Y-121428571D01*
X162720714Y-121952380D02*
X163196904Y-121952380D01*
X163196904Y-120952380D01*
X162720714Y-120952380D01*
X162292142Y-121952380D02*
X162292142Y-120952380D01*
X162054047Y-120952380D01*
X161911190Y-121000000D01*
X161815952Y-121095238D01*
X161768333Y-121190476D01*
X161720714Y-121380952D01*
X161720714Y-121523809D01*
X161768333Y-121714285D01*
X161815952Y-121809523D01*
X161911190Y-121904761D01*
X162054047Y-121952380D01*
X162292142Y-121952380D01*
X160768333Y-121952380D02*
X161339761Y-121952380D01*
X161054047Y-121952380D02*
X161054047Y-120952380D01*
X161149285Y-121095238D01*
X161244523Y-121190476D01*
X161339761Y-121238095D01*
X159863571Y-120952380D02*
X160339761Y-120952380D01*
X160387380Y-121428571D01*
X160339761Y-121380952D01*
X160244523Y-121333333D01*
X160006428Y-121333333D01*
X159911190Y-121380952D01*
X159863571Y-121428571D01*
X159815952Y-121523809D01*
X159815952Y-121761904D01*
X159863571Y-121857142D01*
X159911190Y-121904761D01*
X160006428Y-121952380D01*
X160244523Y-121952380D01*
X160339761Y-121904761D01*
X160387380Y-121857142D01*
X113572380Y-71721904D02*
X112572380Y-71721904D01*
X112572380Y-71960000D01*
X112620000Y-72102857D01*
X112715238Y-72198095D01*
X112810476Y-72245714D01*
X113000952Y-72293333D01*
X113143809Y-72293333D01*
X113334285Y-72245714D01*
X113429523Y-72198095D01*
X113524761Y-72102857D01*
X113572380Y-71960000D01*
X113572380Y-71721904D01*
X112572380Y-73198095D02*
X112572380Y-72721904D01*
X113048571Y-72674285D01*
X113000952Y-72721904D01*
X112953333Y-72817142D01*
X112953333Y-73055238D01*
X113000952Y-73150476D01*
X113048571Y-73198095D01*
X113143809Y-73245714D01*
X113381904Y-73245714D01*
X113477142Y-73198095D01*
X113524761Y-73150476D01*
X113572380Y-73055238D01*
X113572380Y-72817142D01*
X113524761Y-72721904D01*
X113477142Y-72674285D01*
X151672380Y-128395714D02*
X150672380Y-128395714D01*
X150672380Y-128633809D01*
X150720000Y-128776666D01*
X150815238Y-128871904D01*
X150910476Y-128919523D01*
X151100952Y-128967142D01*
X151243809Y-128967142D01*
X151434285Y-128919523D01*
X151529523Y-128871904D01*
X151624761Y-128776666D01*
X151672380Y-128633809D01*
X151672380Y-128395714D01*
X151672380Y-129919523D02*
X151672380Y-129348095D01*
X151672380Y-129633809D02*
X150672380Y-129633809D01*
X150815238Y-129538571D01*
X150910476Y-129443333D01*
X150958095Y-129348095D01*
X150672380Y-130252857D02*
X150672380Y-130919523D01*
X151672380Y-130490952D01*
X170722380Y-118870714D02*
X169722380Y-118870714D01*
X169722380Y-119108809D01*
X169770000Y-119251666D01*
X169865238Y-119346904D01*
X169960476Y-119394523D01*
X170150952Y-119442142D01*
X170293809Y-119442142D01*
X170484285Y-119394523D01*
X170579523Y-119346904D01*
X170674761Y-119251666D01*
X170722380Y-119108809D01*
X170722380Y-118870714D01*
X170722380Y-120394523D02*
X170722380Y-119823095D01*
X170722380Y-120108809D02*
X169722380Y-120108809D01*
X169865238Y-120013571D01*
X169960476Y-119918333D01*
X170008095Y-119823095D01*
X169722380Y-121299285D02*
X169722380Y-120823095D01*
X170198571Y-120775476D01*
X170150952Y-120823095D01*
X170103333Y-120918333D01*
X170103333Y-121156428D01*
X170150952Y-121251666D01*
X170198571Y-121299285D01*
X170293809Y-121346904D01*
X170531904Y-121346904D01*
X170627142Y-121299285D01*
X170674761Y-121251666D01*
X170722380Y-121156428D01*
X170722380Y-120918333D01*
X170674761Y-120823095D01*
X170627142Y-120775476D01*
X172577142Y-95083333D02*
X172624761Y-95035714D01*
X172672380Y-94892857D01*
X172672380Y-94797619D01*
X172624761Y-94654761D01*
X172529523Y-94559523D01*
X172434285Y-94511904D01*
X172243809Y-94464285D01*
X172100952Y-94464285D01*
X171910476Y-94511904D01*
X171815238Y-94559523D01*
X171720000Y-94654761D01*
X171672380Y-94797619D01*
X171672380Y-94892857D01*
X171720000Y-95035714D01*
X171767619Y-95083333D01*
X171672380Y-95416666D02*
X171672380Y-96035714D01*
X172053333Y-95702380D01*
X172053333Y-95845238D01*
X172100952Y-95940476D01*
X172148571Y-95988095D01*
X172243809Y-96035714D01*
X172481904Y-96035714D01*
X172577142Y-95988095D01*
X172624761Y-95940476D01*
X172672380Y-95845238D01*
X172672380Y-95559523D01*
X172624761Y-95464285D01*
X172577142Y-95416666D01*
X136751904Y-50042380D02*
X136751904Y-50851904D01*
X136704285Y-50947142D01*
X136656666Y-50994761D01*
X136561428Y-51042380D01*
X136370952Y-51042380D01*
X136275714Y-50994761D01*
X136228095Y-50947142D01*
X136180476Y-50851904D01*
X136180476Y-50042380D01*
X135751904Y-50137619D02*
X135704285Y-50090000D01*
X135609047Y-50042380D01*
X135370952Y-50042380D01*
X135275714Y-50090000D01*
X135228095Y-50137619D01*
X135180476Y-50232857D01*
X135180476Y-50328095D01*
X135228095Y-50470952D01*
X135799523Y-51042380D01*
X135180476Y-51042380D01*
X167683942Y-57683333D02*
X167731561Y-57635714D01*
X167779180Y-57492857D01*
X167779180Y-57397619D01*
X167731561Y-57254761D01*
X167636323Y-57159523D01*
X167541085Y-57111904D01*
X167350609Y-57064285D01*
X167207752Y-57064285D01*
X167017276Y-57111904D01*
X166922038Y-57159523D01*
X166826800Y-57254761D01*
X166779180Y-57397619D01*
X166779180Y-57492857D01*
X166826800Y-57635714D01*
X166874419Y-57683333D01*
X167112514Y-58540476D02*
X167779180Y-58540476D01*
X166731561Y-58302380D02*
X167445847Y-58064285D01*
X167445847Y-58683333D01*
X144480238Y-112452380D02*
X144956428Y-112452380D01*
X144956428Y-111452380D01*
X144146904Y-111928571D02*
X143813571Y-111928571D01*
X143670714Y-112452380D02*
X144146904Y-112452380D01*
X144146904Y-111452380D01*
X143670714Y-111452380D01*
X143242142Y-112452380D02*
X143242142Y-111452380D01*
X143004047Y-111452380D01*
X142861190Y-111500000D01*
X142765952Y-111595238D01*
X142718333Y-111690476D01*
X142670714Y-111880952D01*
X142670714Y-112023809D01*
X142718333Y-112214285D01*
X142765952Y-112309523D01*
X142861190Y-112404761D01*
X143004047Y-112452380D01*
X143242142Y-112452380D01*
X141718333Y-112452380D02*
X142289761Y-112452380D01*
X142004047Y-112452380D02*
X142004047Y-111452380D01*
X142099285Y-111595238D01*
X142194523Y-111690476D01*
X142289761Y-111738095D01*
X140861190Y-111785714D02*
X140861190Y-112452380D01*
X141099285Y-111404761D02*
X141337380Y-112119047D01*
X140718333Y-112119047D01*
X165484777Y-97732281D02*
X166057197Y-98304701D01*
X166090869Y-98405716D01*
X166090869Y-98473060D01*
X166057197Y-98574075D01*
X165922510Y-98708762D01*
X165821495Y-98742434D01*
X165754151Y-98742434D01*
X165653136Y-98708762D01*
X165080716Y-98136342D01*
X165080716Y-99550556D02*
X165484777Y-99146495D01*
X165282747Y-99348525D02*
X164575640Y-98641419D01*
X164743999Y-98675090D01*
X164878686Y-98675090D01*
X164979701Y-98641419D01*
X113572380Y-109345714D02*
X112572380Y-109345714D01*
X112572380Y-109583809D01*
X112620000Y-109726666D01*
X112715238Y-109821904D01*
X112810476Y-109869523D01*
X113000952Y-109917142D01*
X113143809Y-109917142D01*
X113334285Y-109869523D01*
X113429523Y-109821904D01*
X113524761Y-109726666D01*
X113572380Y-109583809D01*
X113572380Y-109345714D01*
X113572380Y-110869523D02*
X113572380Y-110298095D01*
X113572380Y-110583809D02*
X112572380Y-110583809D01*
X112715238Y-110488571D01*
X112810476Y-110393333D01*
X112858095Y-110298095D01*
X112667619Y-111250476D02*
X112620000Y-111298095D01*
X112572380Y-111393333D01*
X112572380Y-111631428D01*
X112620000Y-111726666D01*
X112667619Y-111774285D01*
X112762857Y-111821904D01*
X112858095Y-111821904D01*
X113000952Y-111774285D01*
X113572380Y-111202857D01*
X113572380Y-111821904D01*
X170004642Y-130923333D02*
X170052261Y-130875714D01*
X170099880Y-130732857D01*
X170099880Y-130637619D01*
X170052261Y-130494761D01*
X169957023Y-130399523D01*
X169861785Y-130351904D01*
X169671309Y-130304285D01*
X169528452Y-130304285D01*
X169337976Y-130351904D01*
X169242738Y-130399523D01*
X169147500Y-130494761D01*
X169099880Y-130637619D01*
X169099880Y-130732857D01*
X169147500Y-130875714D01*
X169195119Y-130923333D01*
X169195119Y-131304285D02*
X169147500Y-131351904D01*
X169099880Y-131447142D01*
X169099880Y-131685238D01*
X169147500Y-131780476D01*
X169195119Y-131828095D01*
X169290357Y-131875714D01*
X169385595Y-131875714D01*
X169528452Y-131828095D01*
X170099880Y-131256666D01*
X170099880Y-131875714D01*
X170722380Y-52671904D02*
X169722380Y-52671904D01*
X169722380Y-52910000D01*
X169770000Y-53052857D01*
X169865238Y-53148095D01*
X169960476Y-53195714D01*
X170150952Y-53243333D01*
X170293809Y-53243333D01*
X170484285Y-53195714D01*
X170579523Y-53148095D01*
X170674761Y-53052857D01*
X170722380Y-52910000D01*
X170722380Y-52671904D01*
X170055714Y-54100476D02*
X170722380Y-54100476D01*
X169674761Y-53862380D02*
X170389047Y-53624285D01*
X170389047Y-54243333D01*
X156522142Y-57683333D02*
X156569761Y-57635714D01*
X156617380Y-57492857D01*
X156617380Y-57397619D01*
X156569761Y-57254761D01*
X156474523Y-57159523D01*
X156379285Y-57111904D01*
X156188809Y-57064285D01*
X156045952Y-57064285D01*
X155855476Y-57111904D01*
X155760238Y-57159523D01*
X155665000Y-57254761D01*
X155617380Y-57397619D01*
X155617380Y-57492857D01*
X155665000Y-57635714D01*
X155712619Y-57683333D01*
X156045952Y-58254761D02*
X155998333Y-58159523D01*
X155950714Y-58111904D01*
X155855476Y-58064285D01*
X155807857Y-58064285D01*
X155712619Y-58111904D01*
X155665000Y-58159523D01*
X155617380Y-58254761D01*
X155617380Y-58445238D01*
X155665000Y-58540476D01*
X155712619Y-58588095D01*
X155807857Y-58635714D01*
X155855476Y-58635714D01*
X155950714Y-58588095D01*
X155998333Y-58540476D01*
X156045952Y-58445238D01*
X156045952Y-58254761D01*
X156093571Y-58159523D01*
X156141190Y-58111904D01*
X156236428Y-58064285D01*
X156426904Y-58064285D01*
X156522142Y-58111904D01*
X156569761Y-58159523D01*
X156617380Y-58254761D01*
X156617380Y-58445238D01*
X156569761Y-58540476D01*
X156522142Y-58588095D01*
X156426904Y-58635714D01*
X156236428Y-58635714D01*
X156141190Y-58588095D01*
X156093571Y-58540476D01*
X156045952Y-58445238D01*
X151672380Y-109345714D02*
X150672380Y-109345714D01*
X150672380Y-109583809D01*
X150720000Y-109726666D01*
X150815238Y-109821904D01*
X150910476Y-109869523D01*
X151100952Y-109917142D01*
X151243809Y-109917142D01*
X151434285Y-109869523D01*
X151529523Y-109821904D01*
X151624761Y-109726666D01*
X151672380Y-109583809D01*
X151672380Y-109345714D01*
X151672380Y-110869523D02*
X151672380Y-110298095D01*
X151672380Y-110583809D02*
X150672380Y-110583809D01*
X150815238Y-110488571D01*
X150910476Y-110393333D01*
X150958095Y-110298095D01*
X151005714Y-111726666D02*
X151672380Y-111726666D01*
X150624761Y-111488571D02*
X151339047Y-111250476D01*
X151339047Y-111869523D01*
X106217838Y-93452380D02*
X106694028Y-93452380D01*
X106694028Y-92452380D01*
X105884504Y-92928571D02*
X105551171Y-92928571D01*
X105408314Y-93452380D02*
X105884504Y-93452380D01*
X105884504Y-92452380D01*
X105408314Y-92452380D01*
X104979742Y-93452380D02*
X104979742Y-92452380D01*
X104741647Y-92452380D01*
X104598790Y-92500000D01*
X104503552Y-92595238D01*
X104455933Y-92690476D01*
X104408314Y-92880952D01*
X104408314Y-93023809D01*
X104455933Y-93214285D01*
X104503552Y-93309523D01*
X104598790Y-93404761D01*
X104741647Y-93452380D01*
X104979742Y-93452380D01*
X103455933Y-93452380D02*
X104027361Y-93452380D01*
X103741647Y-93452380D02*
X103741647Y-92452380D01*
X103836885Y-92595238D01*
X103932123Y-92690476D01*
X104027361Y-92738095D01*
X102503552Y-93452380D02*
X103074980Y-93452380D01*
X102789266Y-93452380D02*
X102789266Y-92452380D01*
X102884504Y-92595238D01*
X102979742Y-92690476D01*
X103074980Y-92738095D01*
X164486190Y-128616190D02*
X164486190Y-129092380D01*
X164819523Y-128092380D02*
X164486190Y-128616190D01*
X164152857Y-128092380D01*
X163295714Y-129092380D02*
X163867142Y-129092380D01*
X163581428Y-129092380D02*
X163581428Y-128092380D01*
X163676666Y-128235238D01*
X163771904Y-128330476D01*
X163867142Y-128378095D01*
X125430238Y-112452380D02*
X125906428Y-112452380D01*
X125906428Y-111452380D01*
X125096904Y-111928571D02*
X124763571Y-111928571D01*
X124620714Y-112452380D02*
X125096904Y-112452380D01*
X125096904Y-111452380D01*
X124620714Y-111452380D01*
X124192142Y-112452380D02*
X124192142Y-111452380D01*
X123954047Y-111452380D01*
X123811190Y-111500000D01*
X123715952Y-111595238D01*
X123668333Y-111690476D01*
X123620714Y-111880952D01*
X123620714Y-112023809D01*
X123668333Y-112214285D01*
X123715952Y-112309523D01*
X123811190Y-112404761D01*
X123954047Y-112452380D01*
X124192142Y-112452380D01*
X122668333Y-112452380D02*
X123239761Y-112452380D01*
X122954047Y-112452380D02*
X122954047Y-111452380D01*
X123049285Y-111595238D01*
X123144523Y-111690476D01*
X123239761Y-111738095D01*
X122335000Y-111452380D02*
X121715952Y-111452380D01*
X122049285Y-111833333D01*
X121906428Y-111833333D01*
X121811190Y-111880952D01*
X121763571Y-111928571D01*
X121715952Y-112023809D01*
X121715952Y-112261904D01*
X121763571Y-112357142D01*
X121811190Y-112404761D01*
X121906428Y-112452380D01*
X122192142Y-112452380D01*
X122287380Y-112404761D01*
X122335000Y-112357142D01*
X132622380Y-109345714D02*
X131622380Y-109345714D01*
X131622380Y-109583809D01*
X131670000Y-109726666D01*
X131765238Y-109821904D01*
X131860476Y-109869523D01*
X132050952Y-109917142D01*
X132193809Y-109917142D01*
X132384285Y-109869523D01*
X132479523Y-109821904D01*
X132574761Y-109726666D01*
X132622380Y-109583809D01*
X132622380Y-109345714D01*
X132622380Y-110869523D02*
X132622380Y-110298095D01*
X132622380Y-110583809D02*
X131622380Y-110583809D01*
X131765238Y-110488571D01*
X131860476Y-110393333D01*
X131908095Y-110298095D01*
X131622380Y-111202857D02*
X131622380Y-111821904D01*
X132003333Y-111488571D01*
X132003333Y-111631428D01*
X132050952Y-111726666D01*
X132098571Y-111774285D01*
X132193809Y-111821904D01*
X132431904Y-111821904D01*
X132527142Y-111774285D01*
X132574761Y-111726666D01*
X132622380Y-111631428D01*
X132622380Y-111345714D01*
X132574761Y-111250476D01*
X132527142Y-111202857D01*
X163054047Y-83952380D02*
X163530238Y-83952380D01*
X163530238Y-82952380D01*
X162720714Y-83428571D02*
X162387380Y-83428571D01*
X162244523Y-83952380D02*
X162720714Y-83952380D01*
X162720714Y-82952380D01*
X162244523Y-82952380D01*
X161815952Y-83952380D02*
X161815952Y-82952380D01*
X161577857Y-82952380D01*
X161435000Y-83000000D01*
X161339761Y-83095238D01*
X161292142Y-83190476D01*
X161244523Y-83380952D01*
X161244523Y-83523809D01*
X161292142Y-83714285D01*
X161339761Y-83809523D01*
X161435000Y-83904761D01*
X161577857Y-83952380D01*
X161815952Y-83952380D01*
X160673095Y-83380952D02*
X160768333Y-83333333D01*
X160815952Y-83285714D01*
X160863571Y-83190476D01*
X160863571Y-83142857D01*
X160815952Y-83047619D01*
X160768333Y-83000000D01*
X160673095Y-82952380D01*
X160482619Y-82952380D01*
X160387380Y-83000000D01*
X160339761Y-83047619D01*
X160292142Y-83142857D01*
X160292142Y-83190476D01*
X160339761Y-83285714D01*
X160387380Y-83333333D01*
X160482619Y-83380952D01*
X160673095Y-83380952D01*
X160768333Y-83428571D01*
X160815952Y-83476190D01*
X160863571Y-83571428D01*
X160863571Y-83761904D01*
X160815952Y-83857142D01*
X160768333Y-83904761D01*
X160673095Y-83952380D01*
X160482619Y-83952380D01*
X160387380Y-83904761D01*
X160339761Y-83857142D01*
X160292142Y-83761904D01*
X160292142Y-83571428D01*
X160339761Y-83476190D01*
X160387380Y-83428571D01*
X160482619Y-83380952D01*
X151672380Y-90295714D02*
X150672380Y-90295714D01*
X150672380Y-90533809D01*
X150720000Y-90676666D01*
X150815238Y-90771904D01*
X150910476Y-90819523D01*
X151100952Y-90867142D01*
X151243809Y-90867142D01*
X151434285Y-90819523D01*
X151529523Y-90771904D01*
X151624761Y-90676666D01*
X151672380Y-90533809D01*
X151672380Y-90295714D01*
X151672380Y-91819523D02*
X151672380Y-91248095D01*
X151672380Y-91533809D02*
X150672380Y-91533809D01*
X150815238Y-91438571D01*
X150910476Y-91343333D01*
X150958095Y-91248095D01*
X151672380Y-92771904D02*
X151672380Y-92200476D01*
X151672380Y-92486190D02*
X150672380Y-92486190D01*
X150815238Y-92390952D01*
X150910476Y-92295714D01*
X150958095Y-92200476D01*
X162237142Y-57683333D02*
X162284761Y-57635714D01*
X162332380Y-57492857D01*
X162332380Y-57397619D01*
X162284761Y-57254761D01*
X162189523Y-57159523D01*
X162094285Y-57111904D01*
X161903809Y-57064285D01*
X161760952Y-57064285D01*
X161570476Y-57111904D01*
X161475238Y-57159523D01*
X161380000Y-57254761D01*
X161332380Y-57397619D01*
X161332380Y-57492857D01*
X161380000Y-57635714D01*
X161427619Y-57683333D01*
X161332380Y-58540476D02*
X161332380Y-58350000D01*
X161380000Y-58254761D01*
X161427619Y-58207142D01*
X161570476Y-58111904D01*
X161760952Y-58064285D01*
X162141904Y-58064285D01*
X162237142Y-58111904D01*
X162284761Y-58159523D01*
X162332380Y-58254761D01*
X162332380Y-58445238D01*
X162284761Y-58540476D01*
X162237142Y-58588095D01*
X162141904Y-58635714D01*
X161903809Y-58635714D01*
X161808571Y-58588095D01*
X161760952Y-58540476D01*
X161713333Y-58445238D01*
X161713333Y-58254761D01*
X161760952Y-58159523D01*
X161808571Y-58111904D01*
X161903809Y-58064285D01*
X124791647Y-55452380D02*
X125267838Y-55452380D01*
X125267838Y-54452380D01*
X124458314Y-54928571D02*
X124124980Y-54928571D01*
X123982123Y-55452380D02*
X124458314Y-55452380D01*
X124458314Y-54452380D01*
X123982123Y-54452380D01*
X123553552Y-55452380D02*
X123553552Y-54452380D01*
X123315457Y-54452380D01*
X123172600Y-54500000D01*
X123077361Y-54595238D01*
X123029742Y-54690476D01*
X122982123Y-54880952D01*
X122982123Y-55023809D01*
X123029742Y-55214285D01*
X123077361Y-55309523D01*
X123172600Y-55404761D01*
X123315457Y-55452380D01*
X123553552Y-55452380D01*
X122648790Y-54452380D02*
X122029742Y-54452380D01*
X122363076Y-54833333D01*
X122220219Y-54833333D01*
X122124980Y-54880952D01*
X122077361Y-54928571D01*
X122029742Y-55023809D01*
X122029742Y-55261904D01*
X122077361Y-55357142D01*
X122124980Y-55404761D01*
X122220219Y-55452380D01*
X122505933Y-55452380D01*
X122601171Y-55404761D01*
X122648790Y-55357142D01*
X133822380Y-118843333D02*
X133346190Y-118510000D01*
X133822380Y-118271904D02*
X132822380Y-118271904D01*
X132822380Y-118652857D01*
X132870000Y-118748095D01*
X132917619Y-118795714D01*
X133012857Y-118843333D01*
X133155714Y-118843333D01*
X133250952Y-118795714D01*
X133298571Y-118748095D01*
X133346190Y-118652857D01*
X133346190Y-118271904D01*
X132822380Y-119700476D02*
X132822380Y-119510000D01*
X132870000Y-119414761D01*
X132917619Y-119367142D01*
X133060476Y-119271904D01*
X133250952Y-119224285D01*
X133631904Y-119224285D01*
X133727142Y-119271904D01*
X133774761Y-119319523D01*
X133822380Y-119414761D01*
X133822380Y-119605238D01*
X133774761Y-119700476D01*
X133727142Y-119748095D01*
X133631904Y-119795714D01*
X133393809Y-119795714D01*
X133298571Y-119748095D01*
X133250952Y-119700476D01*
X133203333Y-119605238D01*
X133203333Y-119414761D01*
X133250952Y-119319523D01*
X133298571Y-119271904D01*
X133393809Y-119224285D01*
X160412380Y-63163333D02*
X159936190Y-62830000D01*
X160412380Y-62591904D02*
X159412380Y-62591904D01*
X159412380Y-62972857D01*
X159460000Y-63068095D01*
X159507619Y-63115714D01*
X159602857Y-63163333D01*
X159745714Y-63163333D01*
X159840952Y-63115714D01*
X159888571Y-63068095D01*
X159936190Y-62972857D01*
X159936190Y-62591904D01*
X159412380Y-63496666D02*
X159412380Y-64115714D01*
X159793333Y-63782380D01*
X159793333Y-63925238D01*
X159840952Y-64020476D01*
X159888571Y-64068095D01*
X159983809Y-64115714D01*
X160221904Y-64115714D01*
X160317142Y-64068095D01*
X160364761Y-64020476D01*
X160412380Y-63925238D01*
X160412380Y-63639523D01*
X160364761Y-63544285D01*
X160317142Y-63496666D01*
X124954047Y-74452380D02*
X125430238Y-74452380D01*
X125430238Y-73452380D01*
X124620714Y-73928571D02*
X124287380Y-73928571D01*
X124144523Y-74452380D02*
X124620714Y-74452380D01*
X124620714Y-73452380D01*
X124144523Y-73452380D01*
X123715952Y-74452380D02*
X123715952Y-73452380D01*
X123477857Y-73452380D01*
X123335000Y-73500000D01*
X123239761Y-73595238D01*
X123192142Y-73690476D01*
X123144523Y-73880952D01*
X123144523Y-74023809D01*
X123192142Y-74214285D01*
X123239761Y-74309523D01*
X123335000Y-74404761D01*
X123477857Y-74452380D01*
X123715952Y-74452380D01*
X122287380Y-73452380D02*
X122477857Y-73452380D01*
X122573095Y-73500000D01*
X122620714Y-73547619D01*
X122715952Y-73690476D01*
X122763571Y-73880952D01*
X122763571Y-74261904D01*
X122715952Y-74357142D01*
X122668333Y-74404761D01*
X122573095Y-74452380D01*
X122382619Y-74452380D01*
X122287380Y-74404761D01*
X122239761Y-74357142D01*
X122192142Y-74261904D01*
X122192142Y-74023809D01*
X122239761Y-73928571D01*
X122287380Y-73880952D01*
X122382619Y-73833333D01*
X122573095Y-73833333D01*
X122668333Y-73880952D01*
X122715952Y-73928571D01*
X122763571Y-74023809D01*
X106380238Y-112452380D02*
X106856428Y-112452380D01*
X106856428Y-111452380D01*
X106046904Y-111928571D02*
X105713571Y-111928571D01*
X105570714Y-112452380D02*
X106046904Y-112452380D01*
X106046904Y-111452380D01*
X105570714Y-111452380D01*
X105142142Y-112452380D02*
X105142142Y-111452380D01*
X104904047Y-111452380D01*
X104761190Y-111500000D01*
X104665952Y-111595238D01*
X104618333Y-111690476D01*
X104570714Y-111880952D01*
X104570714Y-112023809D01*
X104618333Y-112214285D01*
X104665952Y-112309523D01*
X104761190Y-112404761D01*
X104904047Y-112452380D01*
X105142142Y-112452380D01*
X103618333Y-112452380D02*
X104189761Y-112452380D01*
X103904047Y-112452380D02*
X103904047Y-111452380D01*
X103999285Y-111595238D01*
X104094523Y-111690476D01*
X104189761Y-111738095D01*
X103237380Y-111547619D02*
X103189761Y-111500000D01*
X103094523Y-111452380D01*
X102856428Y-111452380D01*
X102761190Y-111500000D01*
X102713571Y-111547619D01*
X102665952Y-111642857D01*
X102665952Y-111738095D01*
X102713571Y-111880952D01*
X103285000Y-112452380D01*
X102665952Y-112452380D01*
X125166238Y-93452380D02*
X125642428Y-93452380D01*
X125642428Y-92452380D01*
X124832904Y-92928571D02*
X124499571Y-92928571D01*
X124356714Y-93452380D02*
X124832904Y-93452380D01*
X124832904Y-92452380D01*
X124356714Y-92452380D01*
X123928142Y-93452380D02*
X123928142Y-92452380D01*
X123690047Y-92452380D01*
X123547190Y-92500000D01*
X123451952Y-92595238D01*
X123404333Y-92690476D01*
X123356714Y-92880952D01*
X123356714Y-93023809D01*
X123404333Y-93214285D01*
X123451952Y-93309523D01*
X123547190Y-93404761D01*
X123690047Y-93452380D01*
X123928142Y-93452380D01*
X122404333Y-93452380D02*
X122975761Y-93452380D01*
X122690047Y-93452380D02*
X122690047Y-92452380D01*
X122785285Y-92595238D01*
X122880523Y-92690476D01*
X122975761Y-92738095D01*
X121785285Y-92452380D02*
X121690047Y-92452380D01*
X121594809Y-92500000D01*
X121547190Y-92547619D01*
X121499571Y-92642857D01*
X121451952Y-92833333D01*
X121451952Y-93071428D01*
X121499571Y-93261904D01*
X121547190Y-93357142D01*
X121594809Y-93404761D01*
X121690047Y-93452380D01*
X121785285Y-93452380D01*
X121880523Y-93404761D01*
X121928142Y-93357142D01*
X121975761Y-93261904D01*
X122023380Y-93071428D01*
X122023380Y-92833333D01*
X121975761Y-92642857D01*
X121928142Y-92547619D01*
X121880523Y-92500000D01*
X121785285Y-92452380D01*
X144004047Y-74452380D02*
X144480238Y-74452380D01*
X144480238Y-73452380D01*
X143670714Y-73928571D02*
X143337380Y-73928571D01*
X143194523Y-74452380D02*
X143670714Y-74452380D01*
X143670714Y-73452380D01*
X143194523Y-73452380D01*
X142765952Y-74452380D02*
X142765952Y-73452380D01*
X142527857Y-73452380D01*
X142385000Y-73500000D01*
X142289761Y-73595238D01*
X142242142Y-73690476D01*
X142194523Y-73880952D01*
X142194523Y-74023809D01*
X142242142Y-74214285D01*
X142289761Y-74309523D01*
X142385000Y-74404761D01*
X142527857Y-74452380D01*
X142765952Y-74452380D01*
X141861190Y-73452380D02*
X141194523Y-73452380D01*
X141623095Y-74452380D01*
D11*
X137820000Y-29975000D02*
X137820000Y-31435000D01*
X128880000Y-35485000D02*
X128880000Y-33685000D01*
X128880000Y-29975000D02*
X128880000Y-31435000D01*
X137820000Y-29975000D02*
X128880000Y-29975000D01*
X137820000Y-35485000D02*
X137820000Y-33685000D01*
X150220000Y-74710000D02*
X150220000Y-70810000D01*
X150220000Y-74710000D02*
X148220000Y-74710000D01*
X148220000Y-74710000D02*
X148220000Y-70810000D01*
X113440000Y-39167936D02*
X113440000Y-40372064D01*
X115260000Y-39167936D02*
X115260000Y-40372064D01*
X131170000Y-93760000D02*
X129170000Y-93760000D01*
X129170000Y-93760000D02*
X129170000Y-89860000D01*
X131170000Y-93760000D02*
X131170000Y-89860000D01*
X150220000Y-55660000D02*
X150220000Y-51760000D01*
X150220000Y-55660000D02*
X148220000Y-55660000D01*
X148220000Y-55660000D02*
X148220000Y-51760000D01*
D10*
X105130600Y-70026000D02*
X105130600Y-73074000D01*
X104927400Y-70000600D02*
X105130600Y-70000600D01*
X105029000Y-73074000D02*
X105029000Y-70026000D01*
X104927400Y-73099400D02*
X105130600Y-73099400D01*
X104927400Y-70026000D02*
X104927400Y-73074000D01*
X106113000Y-72702000D02*
X105675000Y-73100000D01*
X105675000Y-73100000D02*
X106113000Y-73100000D01*
X106113000Y-73100000D02*
X106113000Y-72702000D01*
G36*
X106113000Y-73100000D02*
G01*
X105675000Y-73100000D01*
X106113000Y-72702000D01*
X106113000Y-73100000D01*
G37*
X106113000Y-73100000D02*
X105675000Y-73100000D01*
X106113000Y-72702000D01*
X106113000Y-73100000D01*
D11*
X121645000Y-131860000D02*
X121645000Y-127960000D01*
X121645000Y-131860000D02*
X119645000Y-131860000D01*
X119645000Y-131860000D02*
X119645000Y-127960000D01*
X163792500Y-58111252D02*
X163792500Y-57588748D01*
X162322500Y-58111252D02*
X162322500Y-57588748D01*
X156935436Y-38835000D02*
X157389564Y-38835000D01*
X156935436Y-37365000D02*
X157389564Y-37365000D01*
X161082500Y-130828748D02*
X161082500Y-131351252D01*
X159612500Y-130828748D02*
X159612500Y-131351252D01*
X110120000Y-93760000D02*
X110120000Y-89860000D01*
X112120000Y-93760000D02*
X112120000Y-89860000D01*
X112120000Y-93760000D02*
X110120000Y-93760000D01*
D10*
X114147600Y-130224000D02*
X114147600Y-127176000D01*
X114147600Y-130249400D02*
X113944400Y-130249400D01*
X113944400Y-130224000D02*
X113944400Y-127176000D01*
X114147600Y-127150600D02*
X113944400Y-127150600D01*
X114046000Y-127176000D02*
X114046000Y-130224000D01*
X112962000Y-127548000D02*
X113400000Y-127150000D01*
X113400000Y-127150000D02*
X112962000Y-127150000D01*
X112962000Y-127150000D02*
X112962000Y-127548000D01*
G36*
X112962000Y-127548000D02*
G01*
X112962000Y-127150000D01*
X113400000Y-127150000D01*
X112962000Y-127548000D01*
G37*
X112962000Y-127548000D02*
X112962000Y-127150000D01*
X113400000Y-127150000D01*
X112962000Y-127548000D01*
D11*
X131170000Y-55660000D02*
X129170000Y-55660000D01*
X129170000Y-55660000D02*
X129170000Y-51760000D01*
X131170000Y-55660000D02*
X131170000Y-51760000D01*
D10*
X142722600Y-130224000D02*
X142722600Y-127176000D01*
X142722600Y-127150600D02*
X142519400Y-127150600D01*
X142722600Y-130249400D02*
X142519400Y-130249400D01*
X142621000Y-127176000D02*
X142621000Y-130224000D01*
X142519400Y-130224000D02*
X142519400Y-127176000D01*
X141537000Y-127548000D02*
X141975000Y-127150000D01*
X141975000Y-127150000D02*
X141537000Y-127150000D01*
X141537000Y-127150000D02*
X141537000Y-127548000D01*
G36*
X141537000Y-127548000D02*
G01*
X141537000Y-127150000D01*
X141975000Y-127150000D01*
X141537000Y-127548000D01*
G37*
X141537000Y-127548000D02*
X141537000Y-127150000D01*
X141975000Y-127150000D01*
X141537000Y-127548000D01*
D11*
X164555436Y-103087500D02*
X165009564Y-103087500D01*
X164555436Y-104557500D02*
X165009564Y-104557500D01*
X131170000Y-74710000D02*
X131170000Y-70810000D01*
X131170000Y-74710000D02*
X129170000Y-74710000D01*
X129170000Y-74710000D02*
X129170000Y-70810000D01*
X152172936Y-37365000D02*
X152627064Y-37365000D01*
X152172936Y-38835000D02*
X152627064Y-38835000D01*
D10*
X142621000Y-89076000D02*
X142621000Y-92124000D01*
X142722600Y-92124000D02*
X142722600Y-89076000D01*
X142722600Y-89050600D02*
X142519400Y-89050600D01*
X142722600Y-92149400D02*
X142519400Y-92149400D01*
X142519400Y-92124000D02*
X142519400Y-89076000D01*
X141537000Y-89448000D02*
X141975000Y-89050000D01*
X141975000Y-89050000D02*
X141537000Y-89050000D01*
X141537000Y-89050000D02*
X141537000Y-89448000D01*
G36*
X141537000Y-89448000D02*
G01*
X141537000Y-89050000D01*
X141975000Y-89050000D01*
X141537000Y-89448000D01*
G37*
X141537000Y-89448000D02*
X141537000Y-89050000D01*
X141975000Y-89050000D01*
X141537000Y-89448000D01*
D11*
X110120000Y-55660000D02*
X110120000Y-51760000D01*
X112120000Y-55660000D02*
X112120000Y-51760000D01*
X112120000Y-55660000D02*
X110120000Y-55660000D01*
D10*
X104622600Y-54049400D02*
X104419400Y-54049400D01*
X104622600Y-50950600D02*
X104419400Y-50950600D01*
X104419400Y-54024000D02*
X104419400Y-50976000D01*
X104622600Y-54024000D02*
X104622600Y-50976000D01*
X104521000Y-50976000D02*
X104521000Y-54024000D01*
X103437000Y-51348000D02*
X103875000Y-50950000D01*
X103875000Y-50950000D02*
X103437000Y-50950000D01*
X103437000Y-50950000D02*
X103437000Y-51348000D01*
G36*
X103437000Y-51348000D02*
G01*
X103437000Y-50950000D01*
X103875000Y-50950000D01*
X103437000Y-51348000D01*
G37*
X103437000Y-51348000D02*
X103437000Y-50950000D01*
X103875000Y-50950000D01*
X103437000Y-51348000D01*
D11*
X130037500Y-127497500D02*
X127137500Y-127497500D01*
X130037500Y-122057500D02*
X127137500Y-122057500D01*
X131307500Y-125817500D02*
X131307500Y-123737500D01*
X127137500Y-127497500D02*
X126647500Y-127007500D01*
X127137500Y-122057500D02*
X126647500Y-122547500D01*
X125867500Y-125817500D02*
X125867500Y-123737500D01*
X130037500Y-122057500D02*
X130527500Y-122547500D01*
X130037500Y-127497500D02*
X130527500Y-127007500D01*
X156607500Y-58111252D02*
X156607500Y-57588748D01*
X158077500Y-58111252D02*
X158077500Y-57588748D01*
D10*
X142722600Y-54049400D02*
X142519400Y-54049400D01*
X142621000Y-50976000D02*
X142621000Y-54024000D01*
X142722600Y-54024000D02*
X142722600Y-50976000D01*
X142722600Y-50950600D02*
X142519400Y-50950600D01*
X142519400Y-54024000D02*
X142519400Y-50976000D01*
X141537000Y-51348000D02*
X141975000Y-50950000D01*
X141975000Y-50950000D02*
X141537000Y-50950000D01*
X141537000Y-50950000D02*
X141537000Y-51348000D01*
G36*
X141537000Y-51348000D02*
G01*
X141537000Y-50950000D01*
X141975000Y-50950000D01*
X141537000Y-51348000D01*
G37*
X141537000Y-51348000D02*
X141537000Y-50950000D01*
X141975000Y-50950000D01*
X141537000Y-51348000D01*
D11*
X163655000Y-63102936D02*
X163655000Y-63557064D01*
X165125000Y-63102936D02*
X165125000Y-63557064D01*
D10*
X161671000Y-50976000D02*
X161671000Y-54024000D01*
X161772600Y-54024000D02*
X161772600Y-50976000D01*
X161772600Y-54049400D02*
X161569400Y-54049400D01*
X161772600Y-50950600D02*
X161569400Y-50950600D01*
X161569400Y-54024000D02*
X161569400Y-50976000D01*
X160587000Y-51348000D02*
X161025000Y-50950000D01*
X161025000Y-50950000D02*
X160587000Y-50950000D01*
X160587000Y-50950000D02*
X160587000Y-51348000D01*
G36*
X160587000Y-51348000D02*
G01*
X160587000Y-50950000D01*
X161025000Y-50950000D01*
X160587000Y-51348000D01*
G37*
X160587000Y-51348000D02*
X160587000Y-50950000D01*
X161025000Y-50950000D01*
X160587000Y-51348000D01*
D11*
X169270000Y-84235000D02*
X169270000Y-80335000D01*
X167270000Y-84235000D02*
X167270000Y-80335000D01*
X169270000Y-84235000D02*
X167270000Y-84235000D01*
D10*
X162077400Y-117651000D02*
X162077400Y-120699000D01*
X162077400Y-120724400D02*
X162280600Y-120724400D01*
X162280600Y-117651000D02*
X162280600Y-120699000D01*
X162077400Y-117625600D02*
X162280600Y-117625600D01*
X162179000Y-120699000D02*
X162179000Y-117651000D01*
X163263000Y-120327000D02*
X162825000Y-120725000D01*
X162825000Y-120725000D02*
X163263000Y-120725000D01*
X163263000Y-120725000D02*
X163263000Y-120327000D01*
G36*
X163263000Y-120725000D02*
G01*
X162825000Y-120725000D01*
X163263000Y-120327000D01*
X163263000Y-120725000D01*
G37*
X163263000Y-120725000D02*
X162825000Y-120725000D01*
X163263000Y-120327000D01*
X163263000Y-120725000D01*
D11*
X112120000Y-74710000D02*
X110120000Y-74710000D01*
X112120000Y-74710000D02*
X112120000Y-70810000D01*
X110120000Y-74710000D02*
X110120000Y-70810000D01*
X150220000Y-131860000D02*
X150220000Y-127960000D01*
X150220000Y-131860000D02*
X148220000Y-131860000D01*
X148220000Y-131860000D02*
X148220000Y-127960000D01*
X167270000Y-122335000D02*
X167270000Y-118435000D01*
X169270000Y-122335000D02*
X169270000Y-118435000D01*
X169270000Y-122335000D02*
X167270000Y-122335000D01*
X169805000Y-95511252D02*
X169805000Y-94988748D01*
X171275000Y-95511252D02*
X171275000Y-94988748D01*
X134810000Y-51420000D02*
X137760000Y-51420000D01*
X137210000Y-54520000D02*
X134810000Y-54520000D01*
X166381800Y-58111252D02*
X166381800Y-57588748D01*
X164911800Y-58111252D02*
X164911800Y-57588748D01*
D10*
X143027400Y-111199400D02*
X143230600Y-111199400D01*
X143230600Y-108126000D02*
X143230600Y-111174000D01*
X143129000Y-111174000D02*
X143129000Y-108126000D01*
X143027400Y-108100600D02*
X143230600Y-108100600D01*
X143027400Y-108126000D02*
X143027400Y-111174000D01*
X144213000Y-110802000D02*
X143775000Y-111200000D01*
X143775000Y-111200000D02*
X144213000Y-111200000D01*
X144213000Y-111200000D02*
X144213000Y-110802000D01*
G36*
X144213000Y-111200000D02*
G01*
X143775000Y-111200000D01*
X144213000Y-110802000D01*
X144213000Y-111200000D01*
G37*
X144213000Y-111200000D02*
X143775000Y-111200000D01*
X144213000Y-110802000D01*
X144213000Y-111200000D01*
D11*
X157332341Y-94737348D02*
X156819689Y-95250000D01*
X161412348Y-90657341D02*
X161925000Y-90144689D01*
X162437652Y-99842659D02*
X161925000Y-100355311D01*
X167030311Y-95250000D02*
X166517659Y-94737348D01*
X166517659Y-95762652D02*
X167030311Y-95250000D01*
X161925000Y-90144689D02*
X162437652Y-90657341D01*
X156819689Y-95250000D02*
X157332341Y-95762652D01*
X110120000Y-112810000D02*
X110120000Y-108910000D01*
X112120000Y-112810000D02*
X112120000Y-108910000D01*
X112120000Y-112810000D02*
X110120000Y-112810000D01*
X167232500Y-131351252D02*
X167232500Y-130828748D01*
X168702500Y-131351252D02*
X168702500Y-130828748D01*
X169270000Y-55660000D02*
X169270000Y-51760000D01*
X167270000Y-55660000D02*
X167270000Y-51760000D01*
X169270000Y-55660000D02*
X167270000Y-55660000D01*
X153750000Y-58111252D02*
X153750000Y-57588748D01*
X155220000Y-58111252D02*
X155220000Y-57588748D01*
X150220000Y-112810000D02*
X150220000Y-108910000D01*
X148220000Y-112810000D02*
X148220000Y-108910000D01*
X150220000Y-112810000D02*
X148220000Y-112810000D01*
D10*
X104622600Y-92149400D02*
X104419400Y-92149400D01*
X104419400Y-92124000D02*
X104419400Y-89076000D01*
X104622600Y-89050600D02*
X104419400Y-89050600D01*
X104521000Y-89076000D02*
X104521000Y-92124000D01*
X104622600Y-92124000D02*
X104622600Y-89076000D01*
X103437000Y-89448000D02*
X103875000Y-89050000D01*
X103875000Y-89050000D02*
X103437000Y-89050000D01*
X103437000Y-89050000D02*
X103437000Y-89448000D01*
G36*
X103437000Y-89448000D02*
G01*
X103437000Y-89050000D01*
X103875000Y-89050000D01*
X103437000Y-89448000D01*
G37*
X103437000Y-89448000D02*
X103437000Y-89050000D01*
X103875000Y-89050000D01*
X103437000Y-89448000D01*
D11*
X166010000Y-129440000D02*
X166010000Y-132740000D01*
X166010000Y-132740000D02*
X162010000Y-132740000D01*
D10*
X123977400Y-108126000D02*
X123977400Y-111174000D01*
X123977400Y-108100600D02*
X124180600Y-108100600D01*
X123977400Y-111199400D02*
X124180600Y-111199400D01*
X124079000Y-111174000D02*
X124079000Y-108126000D01*
X124180600Y-108126000D02*
X124180600Y-111174000D01*
X125163000Y-110802000D02*
X124725000Y-111200000D01*
X124725000Y-111200000D02*
X125163000Y-111200000D01*
X125163000Y-111200000D02*
X125163000Y-110802000D01*
G36*
X125163000Y-111200000D02*
G01*
X124725000Y-111200000D01*
X125163000Y-110802000D01*
X125163000Y-111200000D01*
G37*
X125163000Y-111200000D02*
X124725000Y-111200000D01*
X125163000Y-110802000D01*
X125163000Y-111200000D01*
D11*
X131170000Y-112810000D02*
X131170000Y-108910000D01*
X131170000Y-112810000D02*
X129170000Y-112810000D01*
X129170000Y-112810000D02*
X129170000Y-108910000D01*
D10*
X162077400Y-79551000D02*
X162077400Y-82599000D01*
X162077400Y-79525600D02*
X162280600Y-79525600D01*
X162280600Y-79551000D02*
X162280600Y-82599000D01*
X162077400Y-82624400D02*
X162280600Y-82624400D01*
X162179000Y-82599000D02*
X162179000Y-79551000D01*
X163263000Y-82227000D02*
X162825000Y-82625000D01*
X162825000Y-82625000D02*
X163263000Y-82625000D01*
X163263000Y-82625000D02*
X163263000Y-82227000D01*
G36*
X163263000Y-82625000D02*
G01*
X162825000Y-82625000D01*
X163263000Y-82227000D01*
X163263000Y-82625000D01*
G37*
X163263000Y-82625000D02*
X162825000Y-82625000D01*
X163263000Y-82227000D01*
X163263000Y-82625000D01*
D11*
X150220000Y-93760000D02*
X150220000Y-89860000D01*
X148220000Y-93760000D02*
X148220000Y-89860000D01*
X150220000Y-93760000D02*
X148220000Y-93760000D01*
X159465000Y-58111252D02*
X159465000Y-57588748D01*
X160935000Y-58111252D02*
X160935000Y-57588748D01*
D10*
X123672600Y-54024000D02*
X123672600Y-50976000D01*
X123672600Y-54049400D02*
X123469400Y-54049400D01*
X123672600Y-50950600D02*
X123469400Y-50950600D01*
X123571000Y-50976000D02*
X123571000Y-54024000D01*
X123469400Y-54024000D02*
X123469400Y-50976000D01*
X122487000Y-51348000D02*
X122925000Y-50950000D01*
X122925000Y-50950000D02*
X122487000Y-50950000D01*
X122487000Y-50950000D02*
X122487000Y-51348000D01*
G36*
X122487000Y-51348000D02*
G01*
X122487000Y-50950000D01*
X122925000Y-50950000D01*
X122487000Y-51348000D01*
G37*
X122487000Y-51348000D02*
X122487000Y-50950000D01*
X122925000Y-50950000D01*
X122487000Y-51348000D01*
D11*
X132455000Y-119237064D02*
X132455000Y-118782936D01*
X130985000Y-119237064D02*
X130985000Y-118782936D01*
X160875000Y-63102936D02*
X160875000Y-63557064D01*
X162345000Y-63102936D02*
X162345000Y-63557064D01*
D10*
X123977400Y-70026000D02*
X123977400Y-73074000D01*
X123977400Y-70000600D02*
X124180600Y-70000600D01*
X124079000Y-73074000D02*
X124079000Y-70026000D01*
X124180600Y-70026000D02*
X124180600Y-73074000D01*
X123977400Y-73099400D02*
X124180600Y-73099400D01*
X125163000Y-72702000D02*
X124725000Y-73100000D01*
X124725000Y-73100000D02*
X125163000Y-73100000D01*
X125163000Y-73100000D02*
X125163000Y-72702000D01*
G36*
X125163000Y-73100000D02*
G01*
X124725000Y-73100000D01*
X125163000Y-72702000D01*
X125163000Y-73100000D01*
G37*
X125163000Y-73100000D02*
X124725000Y-73100000D01*
X125163000Y-72702000D01*
X125163000Y-73100000D01*
X105130600Y-108126000D02*
X105130600Y-111174000D01*
X104927400Y-111199400D02*
X105130600Y-111199400D01*
X105029000Y-111174000D02*
X105029000Y-108126000D01*
X104927400Y-108126000D02*
X104927400Y-111174000D01*
X104927400Y-108100600D02*
X105130600Y-108100600D01*
X106113000Y-110802000D02*
X105675000Y-111200000D01*
X105675000Y-111200000D02*
X106113000Y-111200000D01*
X106113000Y-111200000D02*
X106113000Y-110802000D01*
G36*
X106113000Y-111200000D02*
G01*
X105675000Y-111200000D01*
X106113000Y-110802000D01*
X106113000Y-111200000D01*
G37*
X106113000Y-111200000D02*
X105675000Y-111200000D01*
X106113000Y-110802000D01*
X106113000Y-111200000D01*
X123672600Y-89050600D02*
X123469400Y-89050600D01*
X123672600Y-92149400D02*
X123469400Y-92149400D01*
X123469400Y-92124000D02*
X123469400Y-89076000D01*
X123571000Y-89076000D02*
X123571000Y-92124000D01*
X123672600Y-92124000D02*
X123672600Y-89076000D01*
X122487000Y-89448000D02*
X122925000Y-89050000D01*
X122925000Y-89050000D02*
X122487000Y-89050000D01*
X122487000Y-89050000D02*
X122487000Y-89448000D01*
G36*
X122487000Y-89448000D02*
G01*
X122487000Y-89050000D01*
X122925000Y-89050000D01*
X122487000Y-89448000D01*
G37*
X122487000Y-89448000D02*
X122487000Y-89050000D01*
X122925000Y-89050000D01*
X122487000Y-89448000D01*
X143230600Y-70026000D02*
X143230600Y-73074000D01*
X143027400Y-70026000D02*
X143027400Y-73074000D01*
X143027400Y-73099400D02*
X143230600Y-73099400D01*
X143129000Y-73074000D02*
X143129000Y-70026000D01*
X143027400Y-70000600D02*
X143230600Y-70000600D01*
X144213000Y-72702000D02*
X143775000Y-73100000D01*
X143775000Y-73100000D02*
X144213000Y-73100000D01*
X144213000Y-73100000D02*
X144213000Y-72702000D01*
G36*
X144213000Y-73100000D02*
G01*
X143775000Y-73100000D01*
X144213000Y-72702000D01*
X144213000Y-73100000D01*
G37*
X144213000Y-73100000D02*
X143775000Y-73100000D01*
X144213000Y-72702000D01*
X144213000Y-73100000D01*
%LPC*%
D12*
X136240000Y-36265000D03*
X130460000Y-36265000D03*
D13*
X130150000Y-37325000D03*
X130950000Y-37325000D03*
D14*
X132100000Y-37325000D03*
X133100000Y-37325000D03*
X133600000Y-37325000D03*
X134600000Y-37325000D03*
D13*
X135750000Y-37325000D03*
X136550000Y-37325000D03*
X136550000Y-37325000D03*
X135750000Y-37325000D03*
D14*
X135100000Y-37325000D03*
X134100000Y-37325000D03*
X132600000Y-37325000D03*
X131600000Y-37325000D03*
D13*
X130950000Y-37325000D03*
X130150000Y-37325000D03*
D15*
X137670000Y-32575000D03*
D16*
X129030000Y-36745000D03*
X137670000Y-36745000D03*
D15*
X129030000Y-32575000D03*
D17*
X149220000Y-74110000D03*
X149220000Y-70810000D03*
D18*
X114350000Y-38370000D03*
X114350000Y-41170000D03*
D19*
X147955000Y-123825000D03*
D20*
X145415000Y-118745000D03*
X139065000Y-121285000D03*
D21*
X142875000Y-123825000D03*
D19*
X137795000Y-123825000D03*
D22*
X135790000Y-121285000D03*
X148717000Y-118745000D03*
D17*
X130170000Y-93160000D03*
X130170000Y-89860000D03*
X149220000Y-55060000D03*
X149220000Y-51760000D03*
D23*
X103631400Y-72100000D03*
X105918600Y-72100000D03*
X105918600Y-71000000D03*
X103631400Y-71000000D03*
D17*
X120645000Y-131260000D03*
X120645000Y-127960000D03*
D24*
X163057500Y-58800000D03*
X163057500Y-56900000D03*
D25*
X156250000Y-38100000D03*
X158075000Y-38100000D03*
D26*
X160347500Y-130140000D03*
X160347500Y-132040000D03*
D17*
X111120000Y-93160000D03*
X111120000Y-89860000D03*
D27*
X154940000Y-102362000D03*
D21*
X170180000Y-126238000D03*
D20*
X158115000Y-111760000D03*
D27*
X154940000Y-126238000D03*
D21*
X161925000Y-114300000D03*
D19*
X156845000Y-114300000D03*
X167005000Y-114300000D03*
D20*
X164465000Y-109220000D03*
D21*
X170180000Y-102362000D03*
D22*
X154840000Y-111760000D03*
X167767000Y-109220000D03*
D23*
X115443600Y-128150000D03*
X113156400Y-128150000D03*
X113156400Y-129250000D03*
X115443600Y-129250000D03*
D17*
X130170000Y-55060000D03*
X130170000Y-51760000D03*
D23*
X144018600Y-128150000D03*
X141731400Y-128150000D03*
X141731400Y-129250000D03*
X144018600Y-129250000D03*
D19*
X109855000Y-66675000D03*
D21*
X104775000Y-66675000D03*
D20*
X107315000Y-61595000D03*
X100965000Y-64135000D03*
D19*
X99695000Y-66675000D03*
D22*
X97690000Y-64135000D03*
X110617000Y-61595000D03*
D25*
X163870000Y-103822500D03*
X165695000Y-103822500D03*
D20*
X120015000Y-45085000D03*
D19*
X118745000Y-47625000D03*
D20*
X126365000Y-42545000D03*
D19*
X128905000Y-47625000D03*
D21*
X123825000Y-47625000D03*
D22*
X116740000Y-45085000D03*
X129667000Y-42545000D03*
D17*
X130170000Y-74110000D03*
X130170000Y-70810000D03*
D25*
X151487500Y-38100000D03*
X153312500Y-38100000D03*
D23*
X144018600Y-90050000D03*
X141731400Y-90050000D03*
X141731400Y-91150000D03*
X144018600Y-91150000D03*
D17*
X111120000Y-55060000D03*
X111120000Y-51760000D03*
D23*
X105918600Y-51950000D03*
X103631400Y-51950000D03*
X103631400Y-53050000D03*
X105918600Y-53050000D03*
D28*
X125487500Y-122927500D03*
X131687500Y-122927500D03*
X125487500Y-126627500D03*
X131687500Y-126627500D03*
D20*
X158115000Y-45085000D03*
D19*
X167005000Y-47625000D03*
D21*
X161925000Y-47625000D03*
D19*
X156845000Y-47625000D03*
D20*
X164465000Y-42545000D03*
D22*
X154840000Y-45085000D03*
X167767000Y-42545000D03*
D19*
X128905000Y-66675000D03*
D20*
X126365000Y-61595000D03*
X120015000Y-64135000D03*
D21*
X123825000Y-66675000D03*
D19*
X118745000Y-66675000D03*
D22*
X116740000Y-64135000D03*
X129667000Y-61595000D03*
D24*
X157342500Y-58800000D03*
X157342500Y-56900000D03*
D23*
X144018600Y-51950000D03*
X141731400Y-51950000D03*
X141731400Y-53050000D03*
X144018600Y-53050000D03*
D20*
X139065000Y-102235000D03*
D21*
X142875000Y-104775000D03*
D19*
X147955000Y-104775000D03*
X137795000Y-104775000D03*
D20*
X145415000Y-99695000D03*
D22*
X135790000Y-102235000D03*
X148717000Y-99695000D03*
D29*
X164390000Y-62417500D03*
X164390000Y-64242500D03*
D23*
X163068600Y-51950000D03*
X160781400Y-51950000D03*
X160781400Y-53050000D03*
X163068600Y-53050000D03*
D17*
X168270000Y-83635000D03*
X168270000Y-80335000D03*
D23*
X160781400Y-119725000D03*
X163068600Y-119725000D03*
X163068600Y-118625000D03*
X160781400Y-118625000D03*
D17*
X111120000Y-74110000D03*
X111120000Y-70810000D03*
X149220000Y-131260000D03*
X149220000Y-127960000D03*
D19*
X128905000Y-104775000D03*
D20*
X126365000Y-99695000D03*
D19*
X118745000Y-104775000D03*
D20*
X120015000Y-102235000D03*
D21*
X123825000Y-104775000D03*
D22*
X116740000Y-102235000D03*
X129667000Y-99695000D03*
D17*
X168270000Y-121735000D03*
X168270000Y-118435000D03*
D24*
X170540000Y-96200000D03*
X170540000Y-94300000D03*
D30*
X137110000Y-52200000D03*
D31*
X137110000Y-53920000D03*
X134910000Y-53920000D03*
X134910000Y-52020000D03*
D21*
X104775000Y-85725000D03*
D19*
X109855000Y-85725000D03*
D20*
X100965000Y-83185000D03*
D19*
X99695000Y-85725000D03*
D20*
X107315000Y-80645000D03*
D22*
X97690000Y-83185000D03*
X110617000Y-80645000D03*
D24*
X165646800Y-58800000D03*
X165646800Y-56900000D03*
D19*
X147955000Y-85725000D03*
D20*
X139065000Y-83185000D03*
D21*
X142875000Y-85725000D03*
D19*
X137795000Y-85725000D03*
D20*
X145415000Y-80645000D03*
D22*
X135790000Y-83185000D03*
X148717000Y-80645000D03*
D23*
X141731400Y-110200000D03*
X144018600Y-110200000D03*
X144018600Y-109100000D03*
X141731400Y-109100000D03*
D21*
X104775000Y-47625000D03*
D19*
X99695000Y-47625000D03*
D20*
X107315000Y-42545000D03*
D19*
X109855000Y-47625000D03*
D20*
X100965000Y-45085000D03*
D22*
X97690000Y-45085000D03*
X110617000Y-42545000D03*
D32*
X161332798Y-99377736D03*
X160979245Y-99024182D03*
X160625691Y-98670629D03*
X160272138Y-98317076D03*
X159918585Y-97963522D03*
X159565031Y-97609969D03*
X159211478Y-97256415D03*
X158857924Y-96902862D03*
X158504371Y-96549309D03*
X158150818Y-96195755D03*
X157797264Y-95842202D03*
D33*
X157797264Y-94657798D03*
X158150818Y-94304245D03*
X158504371Y-93950691D03*
X158857924Y-93597138D03*
X159211478Y-93243585D03*
X159565031Y-92890031D03*
X159918585Y-92536478D03*
X160272138Y-92182924D03*
X160625691Y-91829371D03*
X160979245Y-91475818D03*
X161332798Y-91122264D03*
D32*
X162517202Y-91122264D03*
X162870755Y-91475818D03*
X163224309Y-91829371D03*
X163577862Y-92182924D03*
X163931415Y-92536478D03*
X164284969Y-92890031D03*
X164638522Y-93243585D03*
X164992076Y-93597138D03*
X165345629Y-93950691D03*
X165699182Y-94304245D03*
X166052736Y-94657798D03*
D33*
X166052736Y-95842202D03*
X165699182Y-96195755D03*
X165345629Y-96549309D03*
X164992076Y-96902862D03*
X164638522Y-97256415D03*
X164284969Y-97609969D03*
X163931415Y-97963522D03*
X163577862Y-98317076D03*
X163224309Y-98670629D03*
X162870755Y-99024182D03*
X162517202Y-99377736D03*
D34*
X161925000Y-95250000D03*
D17*
X111120000Y-112210000D03*
X111120000Y-108910000D03*
D24*
X167967500Y-132040000D03*
X167967500Y-130140000D03*
D20*
X164465000Y-71120000D03*
D19*
X156845000Y-76200000D03*
D20*
X158115000Y-73660000D03*
D27*
X154940000Y-88138000D03*
D21*
X161925000Y-76200000D03*
X170180000Y-64262000D03*
D19*
X167005000Y-76200000D03*
D21*
X170180000Y-88138000D03*
D27*
X154940000Y-64262000D03*
D22*
X154840000Y-73660000D03*
X167767000Y-71120000D03*
D19*
X118745000Y-85725000D03*
X128905000Y-85725000D03*
D20*
X126365000Y-80645000D03*
X120015000Y-83185000D03*
D21*
X123825000Y-85725000D03*
D22*
X116740000Y-83185000D03*
X129667000Y-80645000D03*
D17*
X168270000Y-55060000D03*
X168270000Y-51760000D03*
D24*
X154485000Y-58800000D03*
X154485000Y-56900000D03*
D17*
X149220000Y-112210000D03*
X149220000Y-108910000D03*
D23*
X105918600Y-90050000D03*
X103631400Y-90050000D03*
X103631400Y-91150000D03*
X105918600Y-91150000D03*
D20*
X145415000Y-61595000D03*
X139065000Y-64135000D03*
D19*
X137795000Y-66675000D03*
D21*
X142875000Y-66675000D03*
D19*
X147955000Y-66675000D03*
D22*
X135790000Y-64135000D03*
X148717000Y-61595000D03*
D30*
X165110000Y-131940000D03*
X162910000Y-131940000D03*
X162910000Y-130240000D03*
X165110000Y-130240000D03*
D23*
X122681400Y-110200000D03*
X124968600Y-110200000D03*
X124968600Y-109100000D03*
X122681400Y-109100000D03*
D17*
X130170000Y-112210000D03*
X130170000Y-108910000D03*
D23*
X160781400Y-81625000D03*
X163068600Y-81625000D03*
X163068600Y-80525000D03*
X160781400Y-80525000D03*
D17*
X149220000Y-93160000D03*
X149220000Y-89860000D03*
D24*
X160200000Y-58800000D03*
X160200000Y-56900000D03*
D19*
X119380000Y-123825000D03*
D21*
X114300000Y-123825000D03*
D27*
X102362000Y-116840000D03*
D19*
X109220000Y-123825000D03*
D21*
X102362000Y-132080000D03*
X126238000Y-132080000D03*
D27*
X126238000Y-116840000D03*
D20*
X110490000Y-121285000D03*
X116840000Y-118745000D03*
D22*
X107215000Y-121285000D03*
X120142000Y-118745000D03*
D21*
X104775000Y-104775000D03*
D20*
X107315000Y-99695000D03*
D19*
X109855000Y-104775000D03*
X99695000Y-104775000D03*
D20*
X100965000Y-102235000D03*
D22*
X97690000Y-102235000D03*
X110617000Y-99695000D03*
D23*
X124968600Y-51950000D03*
X122681400Y-51950000D03*
X122681400Y-53050000D03*
X124968600Y-53050000D03*
D35*
X131720000Y-119922500D03*
X131720000Y-118097500D03*
D29*
X161610000Y-62417500D03*
X161610000Y-64242500D03*
D23*
X122681400Y-72100000D03*
X124968600Y-72100000D03*
X124968600Y-71000000D03*
X122681400Y-71000000D03*
D20*
X139065000Y-45085000D03*
D21*
X142875000Y-47625000D03*
D19*
X137795000Y-47625000D03*
D20*
X145415000Y-42545000D03*
D19*
X147955000Y-47625000D03*
D22*
X135790000Y-45085000D03*
X148717000Y-42545000D03*
D23*
X103631400Y-110200000D03*
X105918600Y-110200000D03*
X105918600Y-109100000D03*
X103631400Y-109100000D03*
X124968600Y-90050000D03*
X122681400Y-90050000D03*
X122681400Y-91150000D03*
X124968600Y-91150000D03*
X141731400Y-72100000D03*
X144018600Y-72100000D03*
X144018600Y-71000000D03*
X141731400Y-71000000D03*
M02*
