G04 #@! TF.GenerationSoftware,KiCad,Pcbnew,(6.0.0)*
G04 #@! TF.CreationDate,2022-01-07T00:00:26+09:00*
G04 #@! TF.ProjectId,SkeletonNumPad,536b656c-6574-46f6-9e4e-756d5061642e,rev?*
G04 #@! TF.SameCoordinates,Original*
G04 #@! TF.FileFunction,Paste,Bot*
G04 #@! TF.FilePolarity,Positive*
%FSLAX46Y46*%
G04 Gerber Fmt 4.6, Leading zero omitted, Abs format (unit mm)*
G04 Created by KiCad (PCBNEW (6.0.0)) date 2022-01-07 00:00:26*
%MOMM*%
%LPD*%
G01*
G04 APERTURE LIST*
G04 Aperture macros list*
%AMRoundRect*
0 Rectangle with rounded corners*
0 $1 Rounding radius*
0 $2 $3 $4 $5 $6 $7 $8 $9 X,Y pos of 4 corners*
0 Add a 4 corners polygon primitive as box body*
4,1,4,$2,$3,$4,$5,$6,$7,$8,$9,$2,$3,0*
0 Add four circle primitives for the rounded corners*
1,1,$1+$1,$2,$3*
1,1,$1+$1,$4,$5*
1,1,$1+$1,$6,$7*
1,1,$1+$1,$8,$9*
0 Add four rect primitives between the rounded corners*
20,1,$1+$1,$2,$3,$4,$5,0*
20,1,$1+$1,$4,$5,$6,$7,0*
20,1,$1+$1,$6,$7,$8,$9,0*
20,1,$1+$1,$8,$9,$2,$3,0*%
G04 Aperture macros list end*
%ADD10R,1.800000X0.820000*%
%ADD11R,1.200000X0.900000*%
%ADD12RoundRect,0.250000X-0.475000X0.250000X-0.475000X-0.250000X0.475000X-0.250000X0.475000X0.250000X0*%
%ADD13RoundRect,0.250000X-0.450000X0.262500X-0.450000X-0.262500X0.450000X-0.262500X0.450000X0.262500X0*%
%ADD14R,1.800000X1.100000*%
%ADD15R,1.400000X1.200000*%
%ADD16RoundRect,0.250000X0.475000X-0.250000X0.475000X0.250000X-0.475000X0.250000X-0.475000X-0.250000X0*%
%ADD17RoundRect,0.250000X-0.262500X-0.450000X0.262500X-0.450000X0.262500X0.450000X-0.262500X0.450000X0*%
%ADD18R,1.400000X1.000000*%
%ADD19RoundRect,0.250000X0.262500X0.450000X-0.262500X0.450000X-0.262500X-0.450000X0.262500X-0.450000X0*%
%ADD20RoundRect,0.250000X-0.375000X-0.625000X0.375000X-0.625000X0.375000X0.625000X-0.375000X0.625000X0*%
%ADD21RoundRect,0.062500X-0.380070X-0.291682X-0.291682X-0.380070X0.380070X0.291682X0.291682X0.380070X0*%
%ADD22RoundRect,0.062500X-0.380070X0.291682X0.291682X-0.380070X0.380070X-0.291682X-0.291682X0.380070X0*%
%ADD23RoundRect,0.250000X-0.388909X0.000000X0.000000X-0.388909X0.388909X0.000000X0.000000X0.388909X0*%
%ADD24R,0.600000X1.450000*%
%ADD25R,0.300000X1.450000*%
G04 APERTURE END LIST*
D10*
X73690000Y-51610000D03*
X73690000Y-53110000D03*
X78690000Y-53110000D03*
X78690000Y-51610000D03*
X45115000Y-110260000D03*
X45115000Y-108760000D03*
X50115000Y-108760000D03*
X50115000Y-110260000D03*
D11*
X83950000Y-30225000D03*
X83950000Y-26925000D03*
D10*
X40590000Y-51610000D03*
X40590000Y-53110000D03*
X35590000Y-53110000D03*
X35590000Y-51610000D03*
D12*
X101000000Y-39050000D03*
X101000000Y-40950000D03*
D10*
X73690000Y-72160000D03*
X73690000Y-70660000D03*
X78690000Y-70660000D03*
X78690000Y-72160000D03*
D11*
X65050000Y-49275000D03*
X65050000Y-45975000D03*
D12*
X68000000Y-21050000D03*
X68000000Y-22950000D03*
D11*
X84100000Y-87375000D03*
X84100000Y-84075000D03*
D10*
X73690000Y-110260000D03*
X73690000Y-108760000D03*
X78690000Y-108760000D03*
X78690000Y-110260000D03*
D13*
X30000000Y-29087500D03*
X30000000Y-30912500D03*
X39000000Y-29000000D03*
X39000000Y-30825000D03*
D14*
X98350000Y-74350000D03*
X92150000Y-74350000D03*
X92150000Y-78050000D03*
X98350000Y-78050000D03*
D12*
X93000000Y-39050000D03*
X93000000Y-40950000D03*
D15*
X51100000Y-22850000D03*
X48900000Y-22850000D03*
X48900000Y-21150000D03*
X51100000Y-21150000D03*
D13*
X33000000Y-29087500D03*
X33000000Y-30912500D03*
D11*
X103150000Y-58800000D03*
X103150000Y-55500000D03*
X84100000Y-68325000D03*
X84100000Y-65025000D03*
X55525000Y-106425000D03*
X55525000Y-103125000D03*
D10*
X78690000Y-89710000D03*
X78690000Y-91210000D03*
X73690000Y-91210000D03*
X73690000Y-89710000D03*
D16*
X42000000Y-30950000D03*
X42000000Y-29050000D03*
D11*
X103150000Y-96900000D03*
X103150000Y-93600000D03*
X46000000Y-87375000D03*
X46000000Y-84075000D03*
X46000000Y-49275000D03*
X46000000Y-45975000D03*
D12*
X65000000Y-21050000D03*
X65000000Y-22950000D03*
D17*
X101087500Y-76000000D03*
X102912500Y-76000000D03*
D11*
X103000000Y-30225000D03*
X103000000Y-26925000D03*
D12*
X84950000Y-40950000D03*
X84950000Y-39050000D03*
X97050000Y-39050000D03*
X97050000Y-40950000D03*
D11*
X65050000Y-87375000D03*
X65050000Y-84075000D03*
X64900000Y-30225000D03*
X64900000Y-26925000D03*
X46000000Y-68325000D03*
X46000000Y-65025000D03*
D18*
X42900000Y-21050000D03*
X42900000Y-22950000D03*
X45100000Y-22950000D03*
D15*
X45100000Y-21230000D03*
D10*
X97740000Y-110260000D03*
X97740000Y-108760000D03*
X92740000Y-108760000D03*
X92740000Y-110260000D03*
D19*
X36175000Y-37000000D03*
X38000000Y-37000000D03*
D10*
X40590000Y-89710000D03*
X40590000Y-91210000D03*
X35590000Y-91210000D03*
X35590000Y-89710000D03*
D13*
X36000000Y-29087500D03*
X36000000Y-30912500D03*
D10*
X59640000Y-89710000D03*
X59640000Y-91210000D03*
X54640000Y-91210000D03*
X54640000Y-89710000D03*
D12*
X89000000Y-39050000D03*
X89000000Y-40950000D03*
D10*
X54640000Y-72160000D03*
X54640000Y-70660000D03*
X59640000Y-70660000D03*
X59640000Y-72160000D03*
D20*
X42600000Y-26000000D03*
X45400000Y-26000000D03*
D10*
X92740000Y-34060000D03*
X92740000Y-32560000D03*
X97740000Y-32560000D03*
X97740000Y-34060000D03*
X59640000Y-51610000D03*
X59640000Y-53110000D03*
X54640000Y-53110000D03*
X54640000Y-51610000D03*
D11*
X65050000Y-68325000D03*
X65050000Y-65025000D03*
X84100000Y-49275000D03*
X84100000Y-45975000D03*
D10*
X35590000Y-72160000D03*
X35590000Y-70660000D03*
X40590000Y-70660000D03*
X40590000Y-72160000D03*
D21*
X43497264Y-38692202D03*
X43850818Y-39045755D03*
X44204371Y-39399309D03*
X44557924Y-39752862D03*
X44911478Y-40106415D03*
X45265031Y-40459969D03*
X45618585Y-40813522D03*
X45972138Y-41167076D03*
X46325691Y-41520629D03*
X46679245Y-41874182D03*
X47032798Y-42227736D03*
D22*
X48217202Y-42227736D03*
X48570755Y-41874182D03*
X48924309Y-41520629D03*
X49277862Y-41167076D03*
X49631415Y-40813522D03*
X49984969Y-40459969D03*
X50338522Y-40106415D03*
X50692076Y-39752862D03*
X51045629Y-39399309D03*
X51399182Y-39045755D03*
X51752736Y-38692202D03*
D21*
X51752736Y-37507798D03*
X51399182Y-37154245D03*
X51045629Y-36800691D03*
X50692076Y-36447138D03*
X50338522Y-36093585D03*
X49984969Y-35740031D03*
X49631415Y-35386478D03*
X49277862Y-35032924D03*
X48924309Y-34679371D03*
X48570755Y-34325818D03*
X48217202Y-33972264D03*
D22*
X47032798Y-33972264D03*
X46679245Y-34325818D03*
X46325691Y-34679371D03*
X45972138Y-35032924D03*
X45618585Y-35386478D03*
X45265031Y-35740031D03*
X44911478Y-36093585D03*
X44557924Y-36447138D03*
X44204371Y-36800691D03*
X43850818Y-37154245D03*
X43497264Y-37507798D03*
D23*
X48544239Y-36261522D03*
X45786522Y-37180761D03*
X47625000Y-37180761D03*
X50382716Y-38100000D03*
X47625000Y-40857716D03*
X48544239Y-39938478D03*
X48544239Y-38100000D03*
X45786522Y-39019239D03*
X47625000Y-35342284D03*
X49463478Y-39019239D03*
X46705761Y-38100000D03*
X46705761Y-36261522D03*
X47625000Y-39019239D03*
X46705761Y-39938478D03*
X49463478Y-37180761D03*
X44867284Y-38100000D03*
D10*
X92740000Y-62635000D03*
X92740000Y-61135000D03*
X97740000Y-61135000D03*
X97740000Y-62635000D03*
D11*
X84100000Y-106425000D03*
X84100000Y-103125000D03*
D24*
X31750000Y-26045000D03*
X32550000Y-26045000D03*
D25*
X33750000Y-26045000D03*
X34750000Y-26045000D03*
X35250000Y-26045000D03*
X36250000Y-26045000D03*
D24*
X37450000Y-26045000D03*
X38250000Y-26045000D03*
X38250000Y-26045000D03*
X37450000Y-26045000D03*
D25*
X36750000Y-26045000D03*
X35750000Y-26045000D03*
X34250000Y-26045000D03*
X33250000Y-26045000D03*
D24*
X32550000Y-26045000D03*
X31750000Y-26045000D03*
D10*
X73690000Y-34060000D03*
X73690000Y-32560000D03*
X78690000Y-32560000D03*
X78690000Y-34060000D03*
X54640000Y-34060000D03*
X54640000Y-32560000D03*
X59640000Y-32560000D03*
X59640000Y-34060000D03*
M02*
