G04 #@! TF.GenerationSoftware,KiCad,Pcbnew,(6.0.0)*
G04 #@! TF.CreationDate,2022-01-07T00:00:26+09:00*
G04 #@! TF.ProjectId,SkeletonNumPad,536b656c-6574-46f6-9e4e-756d5061642e,rev?*
G04 #@! TF.SameCoordinates,Original*
G04 #@! TF.FileFunction,Soldermask,Top*
G04 #@! TF.FilePolarity,Negative*
%FSLAX46Y46*%
G04 Gerber Fmt 4.6, Leading zero omitted, Abs format (unit mm)*
G04 Created by KiCad (PCBNEW (6.0.0)) date 2022-01-07 00:00:26*
%MOMM*%
%LPD*%
G01*
G04 APERTURE LIST*
%ADD10C,3.987800*%
%ADD11C,1.750000*%
%ADD12C,3.048000*%
%ADD13C,0.650000*%
%ADD14O,1.000000X1.600000*%
%ADD15O,1.000000X2.100000*%
G04 APERTURE END LIST*
D10*
X76200000Y-85725000D03*
D11*
X81280000Y-85725000D03*
X71120000Y-85725000D03*
X52070000Y-47625000D03*
D10*
X57150000Y-47625000D03*
D11*
X62230000Y-47625000D03*
D10*
X76200000Y-47625000D03*
D11*
X81280000Y-47625000D03*
X71120000Y-47625000D03*
X43180000Y-47625000D03*
X33020000Y-47625000D03*
D10*
X38100000Y-47625000D03*
D11*
X90170000Y-95250000D03*
D12*
X88265000Y-83312000D03*
D10*
X103505000Y-83312000D03*
D11*
X100330000Y-95250000D03*
D12*
X88265000Y-107188000D03*
D10*
X103505000Y-107188000D03*
X95250000Y-95250000D03*
D11*
X81280000Y-104775000D03*
X71120000Y-104775000D03*
D10*
X76200000Y-104775000D03*
X38100000Y-85725000D03*
D11*
X33020000Y-85725000D03*
X43180000Y-85725000D03*
X71120000Y-28575000D03*
X81280000Y-28575000D03*
D10*
X76200000Y-28575000D03*
X95250000Y-28575000D03*
D11*
X100330000Y-28575000D03*
X90170000Y-28575000D03*
X62230000Y-66675000D03*
X52070000Y-66675000D03*
D10*
X57150000Y-66675000D03*
X57150000Y-28575000D03*
D11*
X52070000Y-28575000D03*
X62230000Y-28575000D03*
D10*
X103505000Y-69088000D03*
D11*
X100330000Y-57150000D03*
X90170000Y-57150000D03*
D12*
X88265000Y-45212000D03*
X88265000Y-69088000D03*
D10*
X95250000Y-57150000D03*
X103505000Y-45212000D03*
X76200000Y-66675000D03*
D11*
X81280000Y-66675000D03*
X71120000Y-66675000D03*
X43180000Y-66675000D03*
X33020000Y-66675000D03*
D10*
X38100000Y-66675000D03*
D11*
X62230000Y-85725000D03*
D10*
X57150000Y-85725000D03*
D11*
X52070000Y-85725000D03*
D10*
X35718750Y-113030000D03*
X47625000Y-104775000D03*
D11*
X52705000Y-104775000D03*
D12*
X59531250Y-97790000D03*
X35718750Y-97790000D03*
D10*
X59531250Y-113030000D03*
D11*
X42545000Y-104775000D03*
D13*
X37890000Y-24600000D03*
X32110000Y-24600000D03*
D14*
X39320000Y-20950000D03*
X30680000Y-20950000D03*
D15*
X30680000Y-25130000D03*
X39320000Y-25130000D03*
M02*
