M48
; DRILL file {KiCad (6.0.0)} date Fri Jan  7 00:01:11 2022
; FORMAT={-:-/ absolute / metric / decimal}
; #@! TF.CreationDate,2022-01-07T00:01:11+09:00
; #@! TF.GenerationSoftware,Kicad,Pcbnew,(6.0.0)
; #@! TF.FileFunction,Plated,1,2,PTH
FMAT,2
METRIC
; #@! TA.AperFunction,Plated,PTH,ViaDrill
T1C0.400
; #@! TA.AperFunction,Plated,PTH,ComponentDrill
T2C0.600
; #@! TA.AperFunction,Plated,PTH,ComponentDrill
T3C1.470
%
G90
G05
T1
X40.592Y-30.45
X42.683Y-36.7
X42.9Y-38.244
X45.418Y-42.476
X48.0Y-33.144
X48.101Y-43.571
X48.647Y-32.36
X48.855Y-73.995
X48.987Y-19.805
X49.593Y-43.326
X49.593Y-84.474
X50.613Y-43.361
X50.613Y-62.684
X52.231Y-103.184
X52.58Y-35.503
X52.587Y-39.49
X52.901Y-38.307
X53.06Y-34.06
X54.189Y-40.689
X54.303Y-23.971
X65.418Y-29.141
X85.37Y-51.61
X90.52Y-40.0
X92.259Y-89.457
X99.844Y-61.347
T3
X34.29Y-45.085
X34.29Y-64.135
X34.29Y-83.185
X40.64Y-42.545
X40.64Y-61.595
X40.64Y-80.645
X43.815Y-102.235
X50.165Y-99.695
X53.34Y-26.035
X53.34Y-45.085
X53.34Y-64.135
X53.34Y-83.185
X59.69Y-23.495
X59.69Y-42.545
X59.69Y-61.595
X59.69Y-80.645
X72.39Y-26.035
X72.39Y-45.085
X72.39Y-64.135
X72.39Y-83.185
X72.39Y-102.235
X78.74Y-23.495
X78.74Y-42.545
X78.74Y-61.595
X78.74Y-80.645
X78.74Y-99.695
X91.44Y-26.035
X91.44Y-54.61
X91.44Y-92.71
X97.79Y-23.495
X97.79Y-52.07
X97.79Y-90.17
T2
G00X30.68Y-20.65
M15
G01X30.68Y-21.25
M16
G05
G00X30.68Y-24.58
M15
G01X30.68Y-25.68
M16
G05
G00X39.32Y-20.65
M15
G01X39.32Y-21.25
M16
G05
G00X39.32Y-24.58
M15
G01X39.32Y-25.68
M16
G05
T0
M30
