M48
; DRILL file {KiCad (6.0.0)} date Fri Jan  7 00:01:11 2022
; FORMAT={-:-/ absolute / metric / decimal}
; #@! TF.CreationDate,2022-01-07T00:01:11+09:00
; #@! TF.GenerationSoftware,Kicad,Pcbnew,(6.0.0)
; #@! TF.FileFunction,NonPlated,1,2,NPTH
FMAT,2
METRIC
; #@! TA.AperFunction,NonPlated,NPTH,ComponentDrill
T1C0.650
; #@! TA.AperFunction,NonPlated,NPTH,ComponentDrill
T2C1.750
; #@! TA.AperFunction,NonPlated,NPTH,ComponentDrill
T3C3.048
; #@! TA.AperFunction,NonPlated,NPTH,ComponentDrill
T4C3.988
%
G90
G05
T1
X32.11Y-24.6
X37.89Y-24.6
T2
X33.02Y-47.625
X33.02Y-66.675
X33.02Y-85.725
X42.545Y-104.775
X43.18Y-47.625
X43.18Y-66.675
X43.18Y-85.725
X52.07Y-28.575
X52.07Y-47.625
X52.07Y-66.675
X52.07Y-85.725
X52.705Y-104.775
X62.23Y-28.575
X62.23Y-47.625
X62.23Y-66.675
X62.23Y-85.725
X71.12Y-28.575
X71.12Y-47.625
X71.12Y-66.675
X71.12Y-85.725
X71.12Y-104.775
X81.28Y-28.575
X81.28Y-47.625
X81.28Y-66.675
X81.28Y-85.725
X81.28Y-104.775
X90.17Y-28.575
X90.17Y-57.15
X90.17Y-95.25
X100.33Y-28.575
X100.33Y-57.15
X100.33Y-95.25
T3
X35.719Y-97.79
X59.531Y-97.79
X88.265Y-45.212
X88.265Y-69.088
X88.265Y-83.312
X88.265Y-107.188
T4
X35.719Y-113.03
X38.1Y-47.625
X38.1Y-66.675
X38.1Y-85.725
X47.625Y-104.775
X57.15Y-28.575
X57.15Y-47.625
X57.15Y-66.675
X57.15Y-85.725
X59.531Y-113.03
X76.2Y-28.575
X76.2Y-47.625
X76.2Y-66.675
X76.2Y-85.725
X76.2Y-104.775
X95.25Y-28.575
X95.25Y-57.15
X95.25Y-95.25
X103.505Y-45.212
X103.505Y-69.088
X103.505Y-83.312
X103.505Y-107.188
T0
M30
