G04 #@! TF.GenerationSoftware,KiCad,Pcbnew,(6.0.0)*
G04 #@! TF.CreationDate,2022-01-07T00:00:26+09:00*
G04 #@! TF.ProjectId,SkeletonNumPad,536b656c-6574-46f6-9e4e-756d5061642e,rev?*
G04 #@! TF.SameCoordinates,Original*
G04 #@! TF.FileFunction,Profile,NP*
%FSLAX46Y46*%
G04 Gerber Fmt 4.6, Leading zero omitted, Abs format (unit mm)*
G04 Created by KiCad (PCBNEW (6.0.0)) date 2022-01-07 00:00:26*
%MOMM*%
%LPD*%
G01*
G04 APERTURE LIST*
G04 #@! TA.AperFunction,Profile*
%ADD10C,0.100000*%
G04 #@! TD*
G04 #@! TA.AperFunction,Profile*
%ADD11C,0.120000*%
G04 #@! TD*
G04 APERTURE END LIST*
D10*
X28575000Y-114300000D02*
X104775000Y-114300000D01*
X104775000Y-114300000D02*
X104775000Y-19050000D01*
X104775000Y-19050000D02*
X28575000Y-19050000D01*
X28575000Y-19050000D02*
X28575000Y-114300000D01*
D11*
X74490000Y-50860000D02*
X77890000Y-50860000D01*
X74490000Y-53860000D02*
X74490000Y-50860000D01*
X77890000Y-53860000D02*
X74490000Y-53860000D01*
X77890000Y-50860000D02*
X77890000Y-53860000D01*
X49315000Y-111010000D02*
X45915000Y-111010000D01*
X49315000Y-108010000D02*
X49315000Y-111010000D01*
X45915000Y-111010000D02*
X45915000Y-108010000D01*
X45915000Y-108010000D02*
X49315000Y-108010000D01*
X36390000Y-50860000D02*
X39790000Y-50860000D01*
X39790000Y-50860000D02*
X39790000Y-53860000D01*
X36390000Y-53860000D02*
X36390000Y-50860000D01*
X39790000Y-53860000D02*
X36390000Y-53860000D01*
X74490000Y-72910000D02*
X74490000Y-69910000D01*
X77890000Y-72910000D02*
X74490000Y-72910000D01*
X74490000Y-69910000D02*
X77890000Y-69910000D01*
X77890000Y-69910000D02*
X77890000Y-72910000D01*
X74490000Y-108010000D02*
X77890000Y-108010000D01*
X77890000Y-108010000D02*
X77890000Y-111010000D01*
X74490000Y-111010000D02*
X74490000Y-108010000D01*
X77890000Y-111010000D02*
X74490000Y-111010000D01*
X74490000Y-91960000D02*
X74490000Y-88960000D01*
X77890000Y-88960000D02*
X77890000Y-91960000D01*
X77890000Y-91960000D02*
X74490000Y-91960000D01*
X74490000Y-88960000D02*
X77890000Y-88960000D01*
X96940000Y-108010000D02*
X96940000Y-111010000D01*
X96940000Y-111010000D02*
X93540000Y-111010000D01*
X93540000Y-108010000D02*
X96940000Y-108010000D01*
X93540000Y-111010000D02*
X93540000Y-108010000D01*
X39790000Y-88960000D02*
X39790000Y-91960000D01*
X36390000Y-88960000D02*
X39790000Y-88960000D01*
X39790000Y-91960000D02*
X36390000Y-91960000D01*
X36390000Y-91960000D02*
X36390000Y-88960000D01*
X58840000Y-91960000D02*
X55440000Y-91960000D01*
X55440000Y-91960000D02*
X55440000Y-88960000D01*
X58840000Y-88960000D02*
X58840000Y-91960000D01*
X55440000Y-88960000D02*
X58840000Y-88960000D01*
X58840000Y-72910000D02*
X55440000Y-72910000D01*
X58840000Y-69910000D02*
X58840000Y-72910000D01*
X55440000Y-72910000D02*
X55440000Y-69910000D01*
X55440000Y-69910000D02*
X58840000Y-69910000D01*
X93540000Y-34810000D02*
X93540000Y-31810000D01*
X96940000Y-31810000D02*
X96940000Y-34810000D01*
X93540000Y-31810000D02*
X96940000Y-31810000D01*
X96940000Y-34810000D02*
X93540000Y-34810000D01*
X58840000Y-53860000D02*
X55440000Y-53860000D01*
X55440000Y-53860000D02*
X55440000Y-50860000D01*
X55440000Y-50860000D02*
X58840000Y-50860000D01*
X58840000Y-50860000D02*
X58840000Y-53860000D01*
X39790000Y-72910000D02*
X36390000Y-72910000D01*
X39790000Y-69910000D02*
X39790000Y-72910000D01*
X36390000Y-72910000D02*
X36390000Y-69910000D01*
X36390000Y-69910000D02*
X39790000Y-69910000D01*
X93540000Y-63385000D02*
X93540000Y-60385000D01*
X96940000Y-60385000D02*
X96940000Y-63385000D01*
X96940000Y-63385000D02*
X93540000Y-63385000D01*
X93540000Y-60385000D02*
X96940000Y-60385000D01*
X77890000Y-34810000D02*
X74490000Y-34810000D01*
X74490000Y-34810000D02*
X74490000Y-31810000D01*
X74490000Y-31810000D02*
X77890000Y-31810000D01*
X77890000Y-31810000D02*
X77890000Y-34810000D01*
X58840000Y-31810000D02*
X58840000Y-34810000D01*
X55440000Y-31810000D02*
X58840000Y-31810000D01*
X55440000Y-34810000D02*
X55440000Y-31810000D01*
X58840000Y-34810000D02*
X55440000Y-34810000D01*
M02*
