M48
; DRILL file {KiCad (6.0.0)} date Fri Feb 11 16:11:57 2022
; FORMAT={-:-/ absolute / metric / decimal}
; #@! TF.CreationDate,2022-02-11T16:11:57+09:00
; #@! TF.GenerationSoftware,Kicad,Pcbnew,(6.0.0)
; #@! TF.FileFunction,Plated,1,2,PTH
FMAT,2
METRIC
; #@! TA.AperFunction,Plated,PTH,ViaDrill
T1C0.400
; #@! TA.AperFunction,Plated,PTH,ComponentDrill
T2C0.600
%
G90
G05
T1
X97.72Y-47.14
X97.72Y-66.31
X97.72Y-85.29
X97.72Y-104.33
X102.37Y-121.34
X113.084Y-72.942
X113.307Y-52.317
X117.016Y-47.161
X117.016Y-66.211
X117.016Y-81.205
X117.016Y-97.859
X132.32Y-54.682
X132.921Y-38.547
X133.599Y-53.694
X134.034Y-38.824
X135.565Y-119.426
X136.3Y-85.239
X136.321Y-55.037
X136.413Y-62.184
X136.562Y-50.839
X136.852Y-94.517
X137.884Y-49.16
X138.154Y-118.844
X145.225Y-110.594
X147.67Y-130.842
X150.5Y-113.15
X151.738Y-90.286
X155.499Y-94.378
X155.825Y-58.8
X156.309Y-98.287
X157.094Y-95.319
X157.872Y-77.958
X158.392Y-92.424
X158.508Y-98.538
X159.118Y-91.703
X159.657Y-85.204
X159.658Y-83.347
X159.741Y-99.478
X160.677Y-87.719
X161.921Y-90.353
X162.355Y-66.156
X163.231Y-89.541
X163.459Y-55.053
X164.058Y-90.368
X164.1Y-100.654
X164.737Y-99.775
X165.327Y-128.172
X165.668Y-99.2
X165.697Y-87.194
X165.697Y-84.023
X166.003Y-63.257
X166.405Y-107.112
X166.676Y-95.219
X166.757Y-93.731
T2
X129.03Y-32.175G85X129.03Y-32.975
G05
X129.03Y-36.195G85X129.03Y-37.295
G05
X137.67Y-32.175G85X137.67Y-32.975
G05
X137.67Y-36.195G85X137.67Y-37.295
G05
T0
M30
